<svg xmlns="http://www.w3.org/2000/svg" viewBox="0 0 890.34 583.78">
  <defs>
    <style>
      .cls-1 {
        fill: #041625;
      }

      .cls-2 {
        fill: #1b3146;
      }
    </style>
  </defs>
  <g id="Layer_2" data-name="Layer 2">
    <g id="right_board" data-name="right board">
      <g>
        <path id="Path_676" data-name="Path 676" class="cls-1" d="M.56,453.77H889.72V68.06c-33-15.31-78.2-27.3-115.12-37.74A804.33,804.33,0,0,0,651.32,5.87,838.62,838.62,0,0,0,552.27,0Q538.11,0,524,.48A794.25,794.25,0,0,0,398,14.79C348.73,24.51,300.07,39,253,53.08c-18,5.37-36.25,10.82-54.65,16-23.67,6.7-47.56,13-71.44,18.25C80.84,97.47,39.45,102.5.56,102.72-.7,102.73.56,453.77.56,453.77Z"/>
        <path id="Path_676-2" data-name="Path 676" class="cls-1" d="M889.16,130H0V515.72C33,531,78.2,543,115.12,553.45A803.16,803.16,0,0,0,238.4,577.91a838.62,838.62,0,0,0,99,5.87q14.16,0,28.28-.48a794.25,794.25,0,0,0,126-14.31c49.23-9.72,97.89-24.24,145-38.29,18-5.37,36.25-10.82,54.65-16,23.67-6.7,47.56-13,71.44-18.25,46.07-10.11,87.46-15.14,126.35-15.36C890.42,481.05,889.16,130,889.16,130Z"/>
        <path id="Union_4" data-name="Union 4" class="cls-2" d="M239,556.66a879.23,879.23,0,0,1-123.28-22.13C78.82,525.09,33.57,514.25.62,500.4V453.77H.56S-.7,116.64.56,116.64c38.89-.22,80.28-5,126.35-14.76,23.87-5,47.77-11.09,71.44-17.53C216.75,79.35,235,74.11,253,69c47.06-13.48,95.73-27.43,145-36.76A824.32,824.32,0,0,1,524,18.45q14.1-.48,28.28-.47a874.11,874.11,0,0,1,99.05,5.64A832.77,832.77,0,0,1,774.6,47.11c36.92,10,82.17,21.53,115.12,36.24V151.5h.06s1.26,317.54,0,317.55c-38.89.2-80.28,4.74-126.35,13.89-23.88,4.75-47.77,10.45-71.44,16.51-18.4,4.72-36.66,9.65-54.65,14.51-47.07,12.7-95.73,25.84-145,34.62a873.77,873.77,0,0,1-126,12.95q-14.12.44-28.28.43A928.4,928.4,0,0,1,239,556.66Z"/>
      </g>
    </g>
  </g>
</svg>
