<svg xmlns="http://www.w3.org/2000/svg" viewBox="0 0 768 820.23">
  <defs>
    <style>
      .cls-1 {
        fill: #031224;
      }
    </style>
  </defs>
  <g id="Layer_2" data-name="Layer 2">
    <g id="right_board" data-name="right board">
      <path id="Union_8" data-name="Union 8" class="cls-1" d="M0,820.23V62.13c28.44-14,67.5-24.92,99.37-34.45A660.4,660.4,0,0,1,205.79,5.36,684.5,684.5,0,0,1,291.29,0q12.22,0,24.4.44A649.3,649.3,0,0,1,424.48,13.5C467,22.37,509,35.62,549.61,48.44c15.53,4.9,31.29,9.88,47.18,14.64C617.22,69.2,637.84,75,658.45,79.74c39.77,9.23,75.5,13.82,109.07,14,1,0,.2,256.24,0,310.45H768v416Z"/>
    </g>
  </g>
</svg>
