<svg xmlns="http://www.w3.org/2000/svg" viewBox="0 0 375 672.2">
  <defs>
    <style>
      .cls-1 {
        fill: #001626;
      }

      .cls-2 {
        opacity: 0.65;
      }

      .cls-3 {
        fill: #a7a9b7;
      }

      .cls-4 {
        fill: #c5c6d0;
      }

      .cls-5 {
        fill: #ededf0;
      }

      .cls-6 {
        fill: #2f3355;
      }

      .cls-7 {
        fill: #4b4e6c;
      }

      .cls-8 {
        fill: #bcbdc8;
      }

      .cls-22, .cls-24, .cls-25, .cls-8 {
        opacity: 0.4;
      }

      .cls-18, .cls-20, .cls-22, .cls-24, .cls-25, .cls-8 {
        isolation: isolate;
      }

      .cls-9 {
        fill: #aeb0bd;
      }

      .cls-10 {
        fill: #9799aa;
      }

      .cls-11 {
        fill: #d5d6dd;
      }

      .cls-12 {
        fill: #fff;
      }

      .cls-13 {
        fill: #3a3e5f;
      }

      .cls-14 {
        fill: #181c42;
      }

      .cls-15 {
        opacity: 0.6;
      }

      .cls-16 {
        fill: #65dfed;
      }

      .cls-17 {
        fill: #e7b3d8;
      }

      .cls-18 {
        fill: #afeef6;
        opacity: 0.5;
      }

      .cls-19 {
        fill: #eba947;
      }

      .cls-20 {
        fill: #f2c788;
        opacity: 0.6;
      }

      .cls-21 {
        fill: #00a7b5;
      }

      .cls-22, .cls-23 {
        fill: #5bb0ba;
      }

      .cls-24 {
        fill: #00b4c2;
      }

      .cls-25 {
        fill: #f3debe;
      }

      .cls-26 {
        fill: #363a5b;
      }

      .cls-27 {
        fill: #f5c54a;
      }
    </style>
  </defs>
  <g id="Layer_2" data-name="Layer 2">
    <g id="right_board" data-name="right board">
      <g>
        <path class="cls-1" d="M375,660l-.79-.38A150.77,150.77,0,0,0,341,648a152.79,152.79,0,0,0-33.23-3.48c-28.4,0-59.09,6.64-97.95,15-12.37,2.68-25.16,5.44-39.11,8.27a223.77,223.77,0,0,1-44.41,4.4C57.58,672.2,6,640.76.22,637.28L0,606V0H375V660Z"/>
        <g id="laptop" class="cls-2">
          <g id="Group_103" data-name="Group 103">
            <g id="Group_102" data-name="Group 102">
              <path id="Path_393" data-name="Path 393" class="cls-3" d="M143.34,493.19l.59,3.81L246.41,608.88l.28-3.25-100-110.28Z"/>
              <path id="Path_394" data-name="Path 394" class="cls-4" d="M246.47,606.05l-.06,2.82,54.09-7.62,1.21-2.24-42.79,2.8-12,2.13Z"/>
              <path id="Path_395" data-name="Path 395" class="cls-5" d="M201.22,495.91l-57.88-2.72L246.47,606.05l55.24-7Z"/>
              <path id="Path_396" data-name="Path 396" class="cls-6" d="M200,495.77l66.93-65.86s3.07-4.14,8.84,0,64,57.94,64,57.94,23.42,21.9,31.12,29.31c2.87,2.75,5.05,4.48,3,9-2,4.32-13.63,14.94-13.63,14.94l-58.51,58Z"/>
              <path id="Path_397" data-name="Path 397" class="cls-7" d="M209,494.83l60.07-60.77,99,90.58-64.81,65Z"/>
              <path id="Path_398" data-name="Path 398" class="cls-8" d="M313.6,525.36c15.45-2.84,30.92-5.24,46.3-8.19L333,492.53C319,494.91,305,497,291.1,499.16c-22.57,3.5-45.4,8.12-68.27,9.6l29,29.14C272.54,534.39,292.93,529.19,313.6,525.36Z"/>
              <path id="Path_399" data-name="Path 399" class="cls-8" d="M324.84,543.47c10.62-2.1,21.12-4.55,31.58-7.16l9.69-9.72c-13.9,3.07-28,5.44-41.83,8-21.35,3.89-42.69,7.74-64,11.85l7.22,7.26C286.64,550.44,305.79,547.23,324.84,543.47Z"/>
              <path id="Path_400" data-name="Path 400" class="cls-9" d="M174.66,499.62l24.71.58L290.51,592,265,594.84Z"/>
              <g id="Group_90" data-name="Group 90">
                <path id="Path_401" data-name="Path 401" class="cls-10" d="M282.38,589.32a.42.42,0,0,1-.21-.13l-35-35.59a.46.46,0,0,1,0-.65.44.44,0,0,1,.62,0l35,35.6a.46.46,0,0,1,0,.65.48.48,0,0,1-.43.12Z"/>
              </g>
              <g id="Group_91" data-name="Group 91">
                <path id="Path_402" data-name="Path 402" class="cls-10" d="M238.05,544.18a.48.48,0,0,1-.22-.12L222.05,528a.45.45,0,0,1,0-.65.47.47,0,0,1,.65,0l0,0,15.79,16.07a.46.46,0,0,1,0,.65.48.48,0,0,1-.44.11Z"/>
              </g>
              <g id="Group_92" data-name="Group 92">
                <path id="Path_403" data-name="Path 403" class="cls-10" d="M219.21,525a.5.5,0,0,1-.22-.13l-21.93-22.33a.46.46,0,0,1,0-.65.47.47,0,0,1,.65,0l21.93,22.33a.46.46,0,0,1,0,.65.45.45,0,0,1-.43.12Z"/>
              </g>
              <g id="Group_93" data-name="Group 93">
                <path id="Path_404" data-name="Path 404" class="cls-10" d="M275.63,589.65a.43.43,0,0,1-.22-.12l-19.89-20.31a.46.46,0,0,1,0-.65.45.45,0,0,1,.61,0l19.89,20.31a.46.46,0,0,1,0,.65.46.46,0,0,1-.43.12Z"/>
              </g>
              <g id="Group_94" data-name="Group 94">
                <path id="Path_405" data-name="Path 405" class="cls-10" d="M250.44,563.93a.48.48,0,0,1-.22-.12l-21.63-22.08a.46.46,0,0,1,0-.65.45.45,0,0,1,.64,0l0,0,21.63,22.08a.47.47,0,0,1,0,.65.49.49,0,0,1-.43.12Z"/>
              </g>
              <g id="Group_95" data-name="Group 95">
                <path id="Path_406" data-name="Path 406" class="cls-10" d="M223.18,536.11A.46.46,0,0,1,223,536L210.44,523.2a.47.47,0,0,1,0-.65.46.46,0,0,1,.65,0l12.52,12.78a.46.46,0,0,1,0,.65.47.47,0,0,1-.44.12Z"/>
              </g>
              <g id="Group_96" data-name="Group 96">
                <path id="Path_407" data-name="Path 407" class="cls-10" d="M207.53,520.13a.39.39,0,0,1-.21-.13l-16.7-17a.46.46,0,0,1,.66-.64h0l16.69,17a.46.46,0,0,1,0,.65.48.48,0,0,1-.44.12Z"/>
              </g>
              <g id="Group_97" data-name="Group 97">
                <path id="Path_408" data-name="Path 408" class="cls-10" d="M269.84,591.37a.48.48,0,0,1-.22-.12l-10.68-10.94a.46.46,0,0,1,0-.65.47.47,0,0,1,.65,0h0l10.68,10.93a.47.47,0,0,1,0,.66.45.45,0,0,1-.43.11Z"/>
              </g>
              <g id="Group_98" data-name="Group 98">
                <path id="Path_409" data-name="Path 409" class="cls-10" d="M256.88,578.1a.43.43,0,0,1-.22-.12l-19-19.47a.46.46,0,0,1,.63-.68l0,0,19,19.48a.47.47,0,0,1,0,.65.46.46,0,0,1-.43.11Z"/>
              </g>
              <g id="Group_99" data-name="Group 99">
                <path id="Path_410" data-name="Path 410" class="cls-10" d="M233.46,554.14a.45.45,0,0,1-.22-.13l-20.68-21.16a.46.46,0,0,1,0-.65.45.45,0,0,1,.65,0h0l20.69,21.16a.47.47,0,0,1,0,.65.46.46,0,0,1-.43.12Z"/>
              </g>
              <g id="Group_100" data-name="Group 100">
                <path id="Path_411" data-name="Path 411" class="cls-10" d="M209,529.08a.42.42,0,0,1-.22-.13L184.86,504.5a.46.46,0,1,1,.62-.68l0,0,23.9,24.45a.46.46,0,0,1-.44.77Z"/>
              </g>
              <g id="Group_101" data-name="Group 101">
                <path id="Path_412" data-name="Path 412" class="cls-10" d="M185.08,504.62a.43.43,0,0,1-.22-.12l-1.07-1.09a.46.46,0,0,1,.66-.64l1.06,1.09a.46.46,0,0,1,0,.65.49.49,0,0,1-.43.12Z"/>
              </g>
              <path id="Path_413" data-name="Path 413" class="cls-11" d="M198.15,528.15l32.6,34.32-12.17,2.32-33.11-35.63Z"/>
            </g>
            <path id="Path_414" data-name="Path 414" class="cls-12" d="M279.31,600.27s-23.74,2.13-31.22-.77c-8-3.1-24.47-21.38-24.47-21.38l-78.15-84.83-2.13-.11L246.48,606.05l55.24-7-1.12-1.14Z"/>
          </g>
        </g>
        <g id="phone" class="cls-2">
          <g id="Group_85" data-name="Group 85">
            <path id="Path_375" data-name="Path 375" class="cls-13" d="M11.71,383a8.84,8.84,0,0,0-2.63,8C10,396.1,51.75,456,56,458.59s10.7,3.67,22.3-3.64,14.83-9.55,16.1-13.68a9.36,9.36,0,0,0-.88-7.42l-49.13-51Z"/>
            <path id="Path_376" data-name="Path 376" class="cls-9" d="M11.1,383.67h0l-.29.35-.05.07-.28.39-.06.09a9.29,9.29,0,0,0-.67,1.19c-1,4.31,5.33,12,9.5,17.79,4.46,6.19,34.35,48.4,39.37,52.63s13.93-.52,20.35-4.43c5.74-3.49,14.53-8.26,15.6-13.11a7.17,7.17,0,0,0,.17-1.22,9.69,9.69,0,0,0-1-3.19L44.4,382.82,11.84,383A9.71,9.71,0,0,0,11.1,383.67Z"/>
            <path id="Path_377" data-name="Path 377" class="cls-6" d="M10.7,384.29c-2.16,4.08,4.73,12.43,9.19,18.62s34.21,48.33,39.22,52.55,14.67-1.55,21.11-5.46,14-8,14.46-13S66,396.76,55.75,382.2c-2.86-4.06-9.23-12.59-14.76-11.9C33.53,371.23,12.91,380.1,10.7,384.29Z"/>
            <path id="Path_378" data-name="Path 378" class="cls-7" d="M54.83,448.78C46.29,438,30.55,415.9,23.74,406.35c-1.33-1.87-2.34-3.29-2.93-4.1s-1.13-1.56-1.73-2.38c-1.69-2.29-3.43-4.65-4.84-6.92,8.6-3.8,25.71-11.4,36-16a66.59,66.59,0,0,1,4.6,5.86c3.27,4.63,8.43,11.35,13.9,18.45,7.51,9.77,16,20.77,20.83,28.1Z"/>
            <path id="Path_379" data-name="Path 379" class="cls-8" d="M20.81,402.25l0,.05c9.13.82,18.28,1.35,27.43,1.78,7.66.37,15.46.4,23.2.8-.92-1.2-1.84-2.4-2.75-3.57-3.36-4.38-6.61-8.6-9.38-12.29-3-.5-5.88-.94-8.8-1.25-7.07-.74-14.16-1.08-21.25-1.49-5.8,2.57-11.26,5-15.06,6.66,1.41,2.28,3.15,4.64,4.84,6.93C19.68,400.69,20.26,401.48,20.81,402.25Z"/>
            <path id="Path_380" data-name="Path 380" class="cls-8" d="M81.48,418.06c-1.43-1.92-2.91-3.89-4.43-5.89-7.68-.24-15.41-1-23-1.24-9.32-.34-18.63-.73-27.94-1.32,1.2,1.69,2.56,3.58,4,5.6C47.18,417.1,64.37,416.59,81.48,418.06Z"/>
          </g>
          <path id="Path_381" data-name="Path 381" class="cls-14" d="M30.64,379.18a1.19,1.19,0,1,1-1.59-.69A1.22,1.22,0,0,1,30.64,379.18Z"/>
          <path id="Path_382" data-name="Path 382" class="cls-14" d="M33.11,377.85a.64.64,0,0,1-1.2.42.64.64,0,0,1,.35-.8A.66.66,0,0,1,33.11,377.85Z"/>
        </g>
        <g id="watch" class="cls-15">
          <path id="Path_383" data-name="Path 383" class="cls-16" d="M338.37,161.59s5.63,2,4.43,11.27-6.85,17.71-15,24.55-13.82,7.38-18.11,7.38-10.06-3.08-10.06-3.08,4.83,7.91,8.45,10.19,6.71,4.16,12.48,3.62,17.44-3.62,26.83-17.84S354.47,176.22,353,173,344.81,162,338.37,161.59Z"/>
          <path id="Path_384" data-name="Path 384" class="cls-17" d="M338.37,161.59s5.63,2,4.43,11.27-6.85,17.71-15,24.55-13.82,7.38-18.11,7.38-10.06-3.08-10.06-3.08,4.83,7.91,8.45,10.19,6.71,4.16,12.48,3.62,17.44-3.62,26.83-17.84S354.47,176.22,353,173,344.81,162,338.37,161.59Z"/>
          <g id="Group_87" data-name="Group 87">
            <path id="Path_385" data-name="Path 385" class="cls-18" d="M339.84,162.51a7.94,7.94,0,0,0-.81-.83l-.66-.09A5.76,5.76,0,0,1,339.84,162.51Z"/>
            <path id="Path_386" data-name="Path 386" class="cls-18" d="M353,173a23.69,23.69,0,0,0-4.78-6.13,21.82,21.82,0,0,1,3.84,5.2c1.48,3.22,3.76,10.46-5.63,24.68s-21.07,17.31-26.83,17.84-8.86-1.34-12.48-3.62a10.73,10.73,0,0,1-1.55-1.23,13.9,13.9,0,0,0,2.49,2.17c3.62,2.28,6.71,4.16,12.47,3.62s17.44-3.62,26.84-17.84S354.47,176.21,353,173Z"/>
          </g>
          <path id="Path_387" data-name="Path 387" class="cls-16" d="M331.66,170.45s8.18-6.58,16.1-2.15,6,14.22,6,14.22,3.08-10.46-6.44-19.32-16.24-8.72-22.4-6.44-6.58,5.23-6.58,5.23Z"/>
          <path id="Path_388" data-name="Path 388" class="cls-16" d="M310.86,192s-6.7,5.64-6.43,12.08S314.09,215,314.09,215s-12.88-2.55-18.25-15.16,4.29-20.13,4.29-20.13Z"/>
          <g id="Group_88" data-name="Group 88">
            <path id="Path_389" data-name="Path 389" class="cls-6" d="M294.77,174.47s-3.89,3.76-.27,9.39,8.32,11.54,15.7,11.67,22.94-18.91,24.55-22.54-.54-8.31-5.37-13.41-9.66-7.25-15.29-4.16S296.64,170.85,294.77,174.47Z"/>
            <path id="Path_390" data-name="Path 390" class="cls-7" d="M319.33,154a10.56,10.56,0,0,0-5.24,1.42c-5.64,3.09-17.44,15.43-19.32,19.05a5.78,5.78,0,0,0-.9,1.24,8.52,8.52,0,0,0,1.93,4.66c3.48,4.3,7.82,9.8,12.79,9.26s20.79-18.24,21.73-20.39.54-3.49-1.61-6.31A54.33,54.33,0,0,0,319.33,154Z"/>
            <path id="Path_391" data-name="Path 391" class="cls-8" d="M328.65,171.55a15.07,15.07,0,0,0,1.67-2.31c.94-2.15.53-3.49-1.61-6.31-.2-.26-.45-.56-.73-.89-2.46.13-4.92.24-7.32.46-6,.54-12,1.46-17.88,2.49a70.28,70.28,0,0,0-7.55,8.71C306.38,173.28,317.5,172.14,328.65,171.55Z"/>
            <path id="Path_392" data-name="Path 392" class="cls-8" d="M325.07,175.69c-4.16.49-8.34.77-12.34,1-6.13.39-12.19,1-18.31,1.33a9.1,9.1,0,0,0,1.37,2.33c.51.63,1,1.27,1.57,1.92,7.79-.7,15.61-1.45,23.42-2.07C322.29,178.69,323.76,177.13,325.07,175.69Z"/>
          </g>
        </g>
        <g id="wifi" class="cls-2">
          <path id="Path_445" data-name="Path 445" class="cls-19" d="M127.26,440.35l9.12,2.1s3.27-11.07,14.41-14.22c12.62-3.57,18.94,2,18.94,2l3.55-7.38a28.76,28.76,0,0,0-28-2C129.23,428.27,127.26,440.35,127.26,440.35Z"/>
          <path id="Path_446" data-name="Path 446" class="cls-19" d="M140.53,443.76l6.67,1.56a9.59,9.59,0,0,1,7.36-8.57c7.55-2.05,10.65,1.39,10.65,1.39l2.63-4.94s-6.27-4.84-15.52-1.94C141.65,434.62,140.53,443.76,140.53,443.76Z"/>
          <path id="Path_447" data-name="Path 447" class="cls-19" d="M161.53,443.84a4.15,4.15,0,1,1-4.74-3.45A4.14,4.14,0,0,1,161.53,443.84Z"/>
          <path id="Path_448" data-name="Path 448" class="cls-20" d="M160.89,442.2a5.84,5.84,0,0,1-1.44,3.9,4.36,4.36,0,0,1-5.26.94,4.13,4.13,0,0,0,6.7-4.83Z"/>
          <path id="Path_449" data-name="Path 449" class="cls-20" d="M165.62,435.91a10,10,0,0,0-1.67-.75,12.17,12.17,0,0,0-3.61-.89,14.91,14.91,0,0,0-10.24,3.28,16.23,16.23,0,0,0-3.72,4.16c-1.23,1.94-3.52,1.07-5.47.43a10,10,0,0,0-.38,1.62l6.67,1.56a9.61,9.61,0,0,1,7.36-8.58c7.55-2,10.65,1.4,10.65,1.4l1-1.85C166,436.17,165.79,436,165.62,435.91Z"/>
          <path id="Path_450" data-name="Path 450" class="cls-20" d="M171.6,424.74c-.9.73-1.91,1.8-3.13,1.95a11.16,11.16,0,0,1-3.79-.7,27.72,27.72,0,0,0-20.29,3.26,35.28,35.28,0,0,0-7.52,6.43c-.91,1-1.66,2.3-3.12,2.47a11.14,11.14,0,0,1-5.45-1,16,16,0,0,0-1,3.23l9.12,2.1s3.27-11.06,14.41-14.22c12.62-3.57,18.94,2,18.94,2l3.35-7A11,11,0,0,1,171.6,424.74Z"/>
        </g>
        <g id="headphones" class="cls-2">
          <g id="Group_108" data-name="Group 108">
            <path id="Path_415" data-name="Path 415" class="cls-21" d="M53.07,23.2s-15.48-5.86-29.49,1.28S9.29,42.74,9.15,47.46a48.16,48.16,0,0,0,1.11,11.42l-3.94.64a35,35,0,0,1,5.11-29.7c10.31-14.54,29-13.19,34.35-12.33a34.88,34.88,0,0,1,9.46,3Z"/>
            <path id="Path_416" data-name="Path 416" class="cls-22" d="M13.12,31.16C19.36,22.53,29.61,18.74,39.77,17c-8-.09-20.54,1.82-28.33,12.81a35,35,0,0,0-5.11,29.7L8,59.26C5.15,50.09,7.35,39.14,13.12,31.16Z"/>
            <path id="Path_417" data-name="Path 417" class="cls-23" d="M11.82,30.48c10.31-14.54,29-13.19,34.35-12.32A35.36,35.36,0,0,1,55,20.83l.28-.34a34.6,34.6,0,0,0-9.47-3c-5.36-.87-24-2.22-34.34,12.32a35.08,35.08,0,0,0-5.12,29.7l.56-.09A34.52,34.52,0,0,1,11.82,30.48Z"/>
            <g id="Group_106" data-name="Group 106">
              <path id="Path_421" data-name="Path 421" class="cls-21" d="M64.34,35.7s4.1-2.37,7.1-1.21,10.43,8.87,12.74,12.18,3.4,5.43,1.85,8.62a13.17,13.17,0,0,1-2.75,4.16S69.83,45.81,67.07,42.1,64.34,35.7,64.34,35.7Z"/>
              <path id="Path_422" data-name="Path 422" class="cls-21" d="M64.34,35.7s4.1-2.37,7.1-1.21,10.43,8.87,12.74,12.18,3.4,5.43,1.85,8.62a13.17,13.17,0,0,1-2.75,4.16S69.83,45.81,67.07,42.1,64.34,35.7,64.34,35.7Z"/>
              <path id="Path_423" data-name="Path 423" class="cls-24" d="M73,35.4a8.38,8.38,0,0,0-1.59-.91c-3-1.16-7.1,1.21-7.1,1.21a9.31,9.31,0,0,0,1.18,3.91A12.85,12.85,0,0,1,73,35.4Z"/>
              <path id="Path_424" data-name="Path 424" class="cls-6" d="M59.2,37.2s-4.86.84-7.06,3.63-2.57,4.88,6.67,15S69.74,70.33,75.58,70.35s6.56-8.83,6.56-8.83S74.86,47.85,70.07,43.58A36.51,36.51,0,0,0,59.2,37.2Z"/>
              <path id="Path_425" data-name="Path 425" class="cls-25" d="M65.27,58.06c3.34,4.09,6.15,7.47,8.62,12.15a8.56,8.56,0,0,0,1.34.12C71.31,61.45,65,52.16,56.93,46.82c-1.48-1-3-1.45-2.19-3.42,1-2.48,4.43-4,7.31-5-1.69-.8-2.84-1.2-2.84-1.2s-4.87.85-7.07,3.64a5.31,5.31,0,0,0-1.29,3.83,20.56,20.56,0,0,1,4.82,3.21C59.53,50.64,62.42,54.57,65.27,58.06Z"/>
              <path id="Path_426" data-name="Path 426" class="cls-21" d="M64.16,34.91A85.39,85.39,0,0,1,77.22,47.42c6.28,7.75,7.52,10.93,7.52,10.93a11.88,11.88,0,0,1-1.16,3,20.43,20.43,0,0,1-1.87,2.46s-8.49-11.86-14.3-18-9.13-8.33-9.13-8.33a8.42,8.42,0,0,1,3.11-1.85A10.6,10.6,0,0,1,64.16,34.91Z"/>
              <path id="Path_427" data-name="Path 427" class="cls-23" d="M75.48,46.09a63.1,63.1,0,0,1,9.06,13c.13-.42.2-.72.2-.72s-1.24-3.18-7.52-10.92A85.46,85.46,0,0,0,64.16,34.91s-.39,0-.94.15C67.76,37.68,72,42.29,75.48,46.09Z"/>
              <path id="Path_428" data-name="Path 428" class="cls-6" d="M50.84,44.1c.15,2.18,2.16,5.37,8,11.72,8.77,9.59,10.76,14.05,15.94,14.49C68.41,60.14,61.28,50.28,50.84,44.1Z"/>
              <path id="Path_429" data-name="Path 429" class="cls-6" d="M60.71,26.27A11.64,11.64,0,0,1,66.54,31c2.21,3.57,3.32,8.71,4.83,13.06s2,7.4,3.14,7.52c1.88.18,1.5-1.56.08-5.71s-4.42-13.73-5-15A11.59,11.59,0,0,0,65.24,26,23.83,23.83,0,0,0,61,24.1Z"/>
              <path id="Path_430" data-name="Path 430" class="cls-13" d="M52.66,17.89l-2.34,5.77s8.2,3.95,11.06,3.5,2.91-3.69-.61-5.42C58.79,20.78,52.66,17.89,52.66,17.89Z"/>
            </g>
            <g id="Group_107" data-name="Group 107">
              <path id="Path_431" data-name="Path 431" class="cls-21" d="M19.37,70.78s-3.17,3.52-2.66,6.69,6.5,12.06,9.25,15,4.6,4.45,8,3.6a12.94,12.94,0,0,0,4.64-1.82s-10.52-16-13.57-19.47S19.37,70.78,19.37,70.78Z"/>
              <path id="Path_432" data-name="Path 432" class="cls-21" d="M19.37,70.78s-3.17,3.52-2.66,6.69,6.5,12.06,9.25,15,4.6,4.45,8,3.6a12.94,12.94,0,0,0,4.64-1.82s-10.52-16-13.57-19.47S19.37,70.78,19.37,70.78Z"/>
              <path id="Path_433" data-name="Path 433" class="cls-24" d="M23.26,86.35c-3.23-4.91-4.85-9.41-.37-13.65a9.18,9.18,0,0,0-3.52-1.92s-3.17,3.52-2.66,6.69,6.5,12.06,9.25,15c2.09,2.24,3.66,3.64,5.79,3.82C28.29,93.62,25.47,89.7,23.26,86.35Z"/>
              <path id="Path_434" data-name="Path 434" class="cls-6" d="M21.91,66.07s1.85-4.58,5-6.15,5.31-1.49,13.25,9.65S52.12,83.3,50.92,89s-10,4.57-10,4.57-11.86-10-15-15.55A36.92,36.92,0,0,1,21.91,66.07Z"/>
              <path id="Path_435" data-name="Path 435" class="cls-25" d="M29,64.83c.16-.14.32-.3.48-.43a7.53,7.53,0,0,1,1.19-.84,13.24,13.24,0,0,1-1.52-4.36,5.9,5.9,0,0,0-2.24.72c-3.19,1.57-5,6.15-5,6.15a37.89,37.89,0,0,0,1.82,7.17,10.16,10.16,0,0,1,.34-1A11.49,11.49,0,0,1,29,64.83Z"/>
              <path id="Path_436" data-name="Path 436" class="cls-21" d="M18.64,70.43a85.81,85.81,0,0,0,9.51,15.4c6.27,7.76,9.12,9.63,9.12,9.63A11.3,11.3,0,0,0,40.44,95a18.44,18.44,0,0,0,2.81-1.32S33.42,82.86,28.59,75.88s-6.24-10.66-6.24-10.66a8.34,8.34,0,0,0-2.47,2.65A11.21,11.21,0,0,0,18.64,70.43Z"/>
              <path id="Path_437" data-name="Path 437" class="cls-24" d="M23.93,68.44a30,30,0,0,1-1.58-3.22,8.46,8.46,0,0,0-2.46,2.66,10.48,10.48,0,0,0-1.25,2.56s1.06,2.27,2.85,5.43A9.71,9.71,0,0,1,23.93,68.44Z"/>
              <path id="Path_438" data-name="Path 438" class="cls-23" d="M27.21,83.84A63.09,63.09,0,0,0,38,95.42l-.74,0s-2.86-1.87-9.12-9.63a85.81,85.81,0,0,1-9.51-15.4s.12-.37.34-.88C20.59,74.54,24.21,79.69,27.21,83.84Z"/>
              <path id="Path_439" data-name="Path 439" class="cls-26" d="M30.41,59.33c2.1.6,4.8,3.24,9.79,10.24C47.76,80.15,51.7,83,51.05,88.18,42.42,79.86,34.27,70.83,30.41,59.33Z"/>
              <path id="Path_440" data-name="Path 440" class="cls-6" d="M10.91,65.26a11.58,11.58,0,0,0,3.39,6.68c3,2.91,7.81,5.06,11.75,7.45s6.84,3.47,6.7,4.64c-.21,1.88-1.83,1.14-5.59-1.11s-12.51-7.2-13.65-8a11.54,11.54,0,0,1-3.77-5.26,22.56,22.56,0,0,1-1-4.52Z"/>
              <path id="Path_441" data-name="Path 441" class="cls-13" d="M4.4,55.64l6.13-1.09s2.15,8.85,1.11,11.55-4.22,2.07-5.17-1.72C5.94,62.24,4.4,55.64,4.4,55.64Z"/>
            </g>
          </g>
          <path id="Path_442" data-name="Path 442" class="cls-22" d="M63.28,38.83c.45-1.23,1.78-1.77,3-2.22-1.3-1.08-2.13-1.7-2.13-1.7a10.6,10.6,0,0,0-2.77.68,8.44,8.44,0,0,0-3.11,1.86,45,45,0,0,1,5.9,5A4,4,0,0,1,63.28,38.83Z"/>
          <path id="Path_443" data-name="Path 443" class="cls-25" d="M61.38,27.16a2.74,2.74,0,0,0,1.44-.64A14.35,14.35,0,0,1,56,23.63c-2.06-1.65-2.53-3-2-5.11l-1.34-.63-2.34,5.77S58.52,27.61,61.38,27.16Z"/>
          <path id="Path_444" data-name="Path 444" class="cls-25" d="M7.31,55.12l-2.92.52s1.55,6.6,2.08,8.73c.62,2.48,2.19,3.6,3.5,3.34C7.69,64.45,7.32,58.63,7.31,55.12Z"/>
        </g>
        <g id="music" class="cls-2">
          <path id="Path_451" data-name="Path 451" class="cls-19" d="M245,183a13.79,13.79,0,0,0,1.45-2.31c1.45-2.78,3.15-5.46,4.74-8.17l1.29-2.18,2.3-3.92-11.1-8.57-7.08,12.79a3.87,3.87,0,0,0-3.41-3.46,4.24,4.24,0,0,0-.59,8.4c2.79.19,4-2.82,5.16-4.78l1.77-3,2.88-4.77.25-.41,8.55,6.12-5.31,11.45a4,4,0,0,0-3.45-4.06,4.24,4.24,0,0,0-.59,8.4A3.69,3.69,0,0,0,245,183Z"/>
          <path id="Path_452" data-name="Path 452" class="cls-27" d="M239.58,167.88l2.87-4.77.25-.41,8.55,6.11-2.47,5.34c.3-.54.61-1.07.9-1.61a29.93,29.93,0,0,1,2.4-4,19.16,19.16,0,0,1-2-1.25c-1.11-.76-2.2-1.56-3.33-2.29-.9-.59-1.71-1.38-2.65-1.9a5.35,5.35,0,0,0-1.36-.66c-.4-.08-.36.07-.57.44-.44.8-.95,1.58-1.46,2.34s-.93,1.6-1.44,2.37a37.36,37.36,0,0,1-3.41,4.78,5.37,5.37,0,0,1-2.19,1.41,3.69,3.69,0,0,1-2.1.26,3.39,3.39,0,0,1-2.17-1.22,3.75,3.75,0,0,0,3.25,2.77c2.8.2,4-2.82,5.16-4.78Z"/>
          <path id="Path_453" data-name="Path 453" class="cls-27" d="M247.4,179a8.23,8.23,0,0,1-2.26,2.44c-1.84,1.19-5.61,1.35-6.49-1.15a4.44,4.44,0,0,1-.16-.6c0,.14,0,.28,0,.42a4,4,0,0,0,3.44,4.46A3.69,3.69,0,0,0,245,183a13.56,13.56,0,0,0,1.45-2.31C246.78,180.15,247.09,179.59,247.4,179Z"/>
        </g>
        <g id="location" class="cls-2">
          <path id="Path_454" data-name="Path 454" class="cls-19" d="M39.63,293.24a9.89,9.89,0,0,0-10.7,9h0c-.47,5.44,8.33,18.5,8.33,18.5s10.89-11.36,11.36-16.8A9.87,9.87,0,0,0,39.63,293.24Zm-1.27,14.67a4.85,4.85,0,1,1,5.25-4.41,4.85,4.85,0,0,1-5.25,4.41Z"/>
          <path id="Path_455" data-name="Path 455" class="cls-27" d="M37.26,320.73s9-9.43,11-15.22a.54.54,0,0,1,0,.11,30.19,30.19,0,0,1-2.62,3.9c-1.53,2-5,7.15-8.1,5.46A11.76,11.76,0,0,1,34,311.89,31,31,0,0,1,29,303.4C29.58,309.33,37.26,320.73,37.26,320.73Z"/>
        </g>
      </g>
    </g>
  </g>
</svg>
