<svg xmlns="http://www.w3.org/2000/svg" viewBox="0 0 375 693.55">
  <defs>
    <style>
      .cls-1 {
        fill: #001626;
      }

      .cls-2 {
        fill: #2c81c6;
      }

      .cls-3 {
        fill: #7db7e6;
      }

      .cls-4 {
        fill: #fff;
      }

      .cls-5 {
        fill: #ffb220;
      }

      .cls-6 {
        fill: #f58c23;
      }

      .cls-7 {
        fill: #e0333a;
      }

      .cls-12, .cls-8 {
        fill: #040506;
        isolation: isolate;
      }

      .cls-8 {
        opacity: 0.2;
      }

      .cls-9 {
        fill: #f5f9fa;
      }

      .cls-10 {
        fill: #3aaeb6;
      }

      .cls-11 {
        fill: #54b8c9;
      }

      .cls-12 {
        opacity: 0.1;
      }
    </style>
  </defs>
  <g id="Layer_2" data-name="Layer 2">
    <g id="right_board" data-name="right board">
      <g>
        <path class="cls-1" d="M375,0V610.08l-.79-.43a141,141,0,0,0-33.23-13,138.14,138.14,0,0,0-33.23-3.88c-1.64,0-3.28,0-4.93.08-17.59.5-36.16,3.67-57.08,8.25-11.23,2.47-23.14,5.33-35.94,8.41l-2.08.5c-11.72,2.82-23.86,5.73-37,8.7-3.1.7-6.22,1.32-9.34,1.86a200.39,200.39,0,0,1-35.07,3c-67.91,0-119.13-34.18-125.84-38.7l-.22-.15L0,549.94V0Z"/>
        <g id="clouds">
          <g>
            <path class="cls-2" d="M176,576.67a54.4,54.4,0,0,0,8.52-12c-.3,1.42-.61,2.81-.93,4.18a160.51,160.51,0,0,1-22.2,51.72c-.67,1-1.34,2.06-2,3A35.56,35.56,0,0,1,131,639.83c-16.45.47-32.26,9.91-32.09,29.6-7.11-11.56-24.46-8.77-28,4.65-8.94-24.71-46-30-70.44-12.64v-76.5l-.22-.15L0,549.94V438.53l.44.46C13,452.55,20.9,473.12,19.33,500.67c25.85-21.86,86.73-9.84,75.32,48.74,19.8-10,33.66,11.64,23.34,26.11,16.07-11.34,33.23,8.7,48.13,6.65A15.87,15.87,0,0,0,176,576.67Z"/>
            <path class="cls-2" d="M195.76,540.82c0-1.17.06-2.34.12-3.53l-.64.44-2.57,1.8-1.41-1.22-2-1.77c0-.88,0-1.75,0-2.63,0-.18,0-.36,0-.54,0-.76,0-1.52.07-2.29v-.18c0-.14,0-.28,0-.42l1.74.09,2.52.13,3.32.18c0,.12,0,.27,0,.39-.05.87-.11,1.73-.19,2.6s-.2,2-.31,3c-.24,2.18-.5,4.38-.7,6.6Q195.73,542.18,195.76,540.82Z"/>
            <path class="cls-2" d="M375,488.34v161l-19.3,17.39a57.71,57.71,0,0,1-12.85,1.14h-.14a120.3,120.3,0,0,0-16.51.68c-13.68,1.48-29.75,5.79-28,17.42-2.12-13.72-19.07-18.29-27.35-7.53,2.21-19.57-12.53-30.6-28.84-32.78a35.55,35.55,0,0,1-26.57-19.05c-2.53-4.84-5.22-10.3-7.76-16.52a157.59,157.59,0,0,1-10.61-40.44q-.35-2.69-.59-5.5c0-.16,0-.33-.05-.5q-.28-3-.46-6.11a39.32,39.32,0,0,0,.9,4c0,.1.06.2.08.3.3,1,.64,2.06,1,3.13a54.11,54.11,0,0,0,7.42,13.25,16,16,0,0,0,9.21,6.5c14.59,3.58,33.74-14.58,48.55-1.62-8.76-15.48,7.27-35.52,25.93-23.55-5.26-59.45,56.53-65.09,80-40.66A101.67,101.67,0,0,1,375,488.34Z"/>
          </g>
          <g>
            <path class="cls-3" d="M189.23,536.54c0,5.2.19,10.42-.72,15.92h0c0,.33-.11.66-.18,1a39.93,39.93,0,0,1-3.62,10.78c-.07.15-.15.3-.23.45-.3,1.42-.61,2.81-.93,4.18a160.51,160.51,0,0,1-22.2,51.72c-.67,1-1.34,2.06-2,3A35.56,35.56,0,0,1,131,639.83c-16.45.47-32.26,9.91-32.09,29.6-7.11-11.56-24.46-8.77-28,4.65-8.94-24.71-46-30-70.44-12.64v-76.5l-.22-.15L0,549.94V524l.44.32c14.6,10.93,23.33,30.1,18.73,52,3.24-11.25,16.18-5.15,14.26,4.79C69.5,561,98.15,590.24,90,618.64c5.61-11.17,17.73-10.59,20.89-1,0-17.16,14.71-24.16,25.54-22A28.52,28.52,0,0,0,165.3,583.4l.82-1.23a101,101,0,0,0,15.71-44.07c.17-1.43.31-2.88.43-4.36.08-1,.15-2,.2-3.08l5.74,5,.77.67Z"/>
            <path class="cls-3" d="M375,552.7v97.83L357.24,666.4l-1.54.29a57.71,57.71,0,0,1-12.85,1.14h-.14a120.3,120.3,0,0,0-16.51.68c-13.68,1.48-29.75,5.79-28,17.42-2.12-13.72-19.07-18.29-27.35-7.53,2.21-19.57-12.53-30.6-28.84-32.78a35.55,35.55,0,0,1-26.57-19.05c-2.53-4.84-5.22-10.3-7.76-16.52a157.59,157.59,0,0,1-10.61-40.44q-.35-2.69-.59-5.5c0-.16,0-.33-.05-.5q-.28-3-.46-6.11a51.89,51.89,0,0,1-.31-14q0-1.34.06-2.7c0-1.17.06-2.34.12-3.53l.52-.37.3-.21,7.05-4.94c0,.51-.06,1-.07,1.5q-.12,3.18-.08,6.24a101.14,101.14,0,0,0,11.06,45.2c.22.44.45.86.68,1.29a28.55,28.55,0,0,0,27.5,15.18,20,20,0,0,1,2.9,0c10.37.58,21.83,9,20.2,24.6,4.14-9.22,16.27-8.54,20.68,3.15a34.56,34.56,0,0,1,16.2-36c11.41-6.76,27.4-7.08,43.92,4.5-.88-10.08,12.62-14.8,14.68-3.28C359.68,577.29,365.35,562.81,375,552.7Z"/>
          </g>
          <path class="cls-3" d="M375,619v44c-2.41.29-4.81.71-7.19,1.19h0c-3.53.71-7,1.53-10.56,2.22l-1.54.29a57.71,57.71,0,0,1-12.85,1.14h-.14a120.3,120.3,0,0,0-16.51.68,78.8,78.8,0,0,1,7.55-16.23C342.84,637.05,358,626.86,375,619Z"/>
          <g>
            <path class="cls-4" d="M375,663v29.17H328.41l-1.56,1.39c-.09-.17-.18-.34-.26-.52l0-.08c-.13-.26-.24-.52-.35-.79H.44V661.44c24.45-17.33,61.5-12.07,70.44,12.64,3.53-13.42,20.88-16.21,28-4.65-.17-19.69,15.64-29.13,32.09-29.6a35.56,35.56,0,0,0,28.4-16.19c.65-1,1.32-2,2-3a160.51,160.51,0,0,0,22.2-51.72c.32-1.37.63-2.76.93-4.18.08-.15.16-.3.23-.45a39.93,39.93,0,0,0,3.62-10.78c.07-.34.13-.67.18-1h0c.91-5.5.75-10.72.72-15.92l2,1.77,1.41,1.22,2.57-1.8.64-.44c-.06,1.19-.09,2.36-.12,3.53q0,1.36-.06,2.7a51.89,51.89,0,0,0,.31,14q.18,3.12.46,6.11c0,.17,0,.34.05.5q.24,2.82.59,5.5A157.59,157.59,0,0,0,207.72,610c2.54,6.22,5.23,11.68,7.76,16.52a35.55,35.55,0,0,0,26.57,19.05c16.31,2.18,31.05,13.21,28.84,32.78,8.28-10.76,25.23-6.19,27.35,7.53-1.79-11.63,14.28-15.94,28-17.42a120.3,120.3,0,0,1,16.51-.68h.14a57.71,57.71,0,0,0,12.85-1.14l1.54-.29c3.52-.69,7-1.51,10.56-2.22h0C370.19,663.7,372.59,663.28,375,663Z"/>
            <path class="cls-4" d="M196,557.49a51.89,51.89,0,0,1-.31-14Q195.61,550.81,196,557.49Z"/>
            <path class="cls-4" d="M195.88,537.29l-.64.44-2.57,1.8-1.41-1.22-2-1.77c0,5.2.19,10.42-.72,15.92h0c0,.33-.11.66-.18,1a39.93,39.93,0,0,1-3.62,10.78c-.07.15-.15.3-.23.45q1.11-5.31,2-11.1c.18-1.29.36-2.59.52-3.91.37-3,.69-6.07.93-9.26.13-1.57.24-3.15.32-4.78l0-.56v-.18l.28-.42.58-.88.15-.24,1.83-2.8,1.37-2.09,1.15,2.22,2.14,4.17.22.41h0v0c0,.18,0,.36,0,.53C195.92,536.33,195.9,536.81,195.88,537.29Z"/>
          </g>
        </g>
        <g id="rocket">
          <g id="Group_152" data-name="Group 152">
            <g id="Group_143" data-name="Group 143">
              <path id="Path_569" data-name="Path 569" class="cls-5" d="M207.9,523.09c-6,13.67-11.45,21.72-16.38,52a1.2,1.2,0,0,0,0,.2,1.94,1.94,0,0,1-.05-.2c-7-29.82-13.07-37.47-20-50.69s-1.05-29.94-1.05-29.94l18.13-1.91h.08l18.23.63S213.9,509.36,207.9,523.09Z"/>
              <path id="Path_570" data-name="Path 570" class="cls-6" d="M190.36,543.48a133.71,133.71,0,0,0-8.93-18.7c-1-1.78-2-3.62-3-5.56-3.33-6.36-2.48-18.83-1.55-23.4l22.87-.8c1.25,4.48,3.71,16.82.82,23.42-.87,2-1.75,3.92-2.61,5.77A134.26,134.26,0,0,0,190.36,543.48Z"/>
            </g>
            <g id="Group_151" data-name="Group 151">
              <g id="Group_144" data-name="Group 144">
                <path id="Path_571" data-name="Path 571" class="cls-7" d="M158.53,448.9a24.34,24.34,0,0,0-11.35,3.21c-6.44,3.83-12.23,12.26-6.9,30.78,4.08,14.17,5.16,24.18,5.16,30.8a3.59,3.59,0,0,1-6.7,1.78c-8.52-14.81-24.07-45.16-22.54-66.74,1-14.35,10.13-28.82,19.25-39.91a162.12,162.12,0,0,1,19-19.44,275,275,0,0,0,2.41,50h0c.06.36.11.73.17,1.09Q157.69,444.79,158.53,448.9Z"/>
                <path id="Path_572" data-name="Path 572" class="cls-8" d="M158.52,448.9a24.34,24.34,0,0,0-11.34,3.21c-6.44,3.83-12.23,12.26-6.91,30.78,4.09,14.17,5.17,24.18,5.17,30.8a3.5,3.5,0,0,1-2.49,3.42,13.19,13.19,0,0,1-.94-5.89c.85-13.07-12.57-35.92-12.42-51.63A27.58,27.58,0,0,1,133,446.45a43.3,43.3,0,0,0,3.91-32.1l-1.5-5.53a162.12,162.12,0,0,1,19-19.44,275,275,0,0,0,2.41,50h0c.06.36.11.73.17,1.08,0,.14,0,.28.07.42.07.46.14.92.22,1.38s.19,1.18.3,1.77c0,.09,0,.17,0,.25.11.58.21,1.15.32,1.72C158.14,447,158.33,447.93,158.52,448.9Z"/>
              </g>
              <g id="Group_145" data-name="Group 145">
                <path id="Path_573" data-name="Path 573" class="cls-7" d="M214.45,446.94A24.22,24.22,0,0,1,226,449.35c6.7,3.37,13.06,11.37,9,30.21-3.08,14.43-3.46,24.49-3,31.1a3.59,3.59,0,0,0,6.82,1.3c7.45-15.38,20.84-46.73,17.81-68.16-2-14.24-12.13-28-22-38.46a161.86,161.86,0,0,0-20.3-18.06,274.26,274.26,0,0,1,1.09,50h0l-.09,1.1C215.13,441.31,214.82,444.17,214.45,446.94Z"/>
                <path id="Path_574" data-name="Path 574" class="cls-8" d="M214.45,446.94A24.22,24.22,0,0,1,226,449.35c6.7,3.37,13.06,11.37,9,30.21-3.08,14.43-3.46,24.49-3,31.1a3.52,3.52,0,0,0,2.73,3.23,13,13,0,0,0,.52-5.94c-1.76-13,10-36.71,8.77-52.37a27.63,27.63,0,0,0-4.35-12.87A43.26,43.26,0,0,1,233.56,411l1.11-5.62a161.86,161.86,0,0,0-20.3-18.06,274.26,274.26,0,0,1,1.09,50h0l-.09,1.1c0,.14,0,.28,0,.42,0,.46-.07.93-.12,1.39s-.11,1.19-.18,1.79a2.29,2.29,0,0,0,0,.25c-.07.58-.13,1.16-.2,1.73Q214.65,445.47,214.45,446.94Z"/>
              </g>
              <g id="Group_148" data-name="Group 148">
                <path id="Path_575" data-name="Path 575" class="cls-9" d="M210.32,485.46c-1,6.24-1.67,9.87-1.67,9.87a61,61,0,0,1-25.14,4.1,63.58,63.58,0,0,1-15.1-2.69s-.94-3.83-2.52-10.39c-7.38-30.84-28.48-122.13-29-160a86.46,86.46,0,0,1,4-26.38c.82-2.68,1.74-5.33,2.74-7.92.78-2,1.61-4,2.48-6,8.74-19.55,21.49-35.56,28.41-43.46a7,7,0,0,1,9.89-.64l.3.28c7.54,7.49,21.64,22.85,31.75,42.08.93,1.77,1.82,3.58,2.68,5.41q1.77,3.78,3.26,7.73a86.17,86.17,0,0,1,5.73,25.65C230.31,361.24,215.42,454.86,210.32,485.46Z"/>
                <path id="Path_576" data-name="Path 576" class="cls-7" d="M210.32,485.46c-1,6.24-1.67,9.87-1.67,9.87a61,61,0,0,1-25.14,4.1,63.58,63.58,0,0,1-15.1-2.69s-.94-3.83-2.52-10.39c2.41,1.21,10.33,4.63,22.45,4.2A57.94,57.94,0,0,0,210.32,485.46Z"/>
                <g id="Group_147" data-name="Group 147">
                  <g id="Group_146" data-name="Group 146">
                    <path id="Path_577" data-name="Path 577" class="cls-7" d="M222.43,297.49c-11.72,3.55-26.61,7.08-40.62,7.57-13.75.48-28.78-2.16-40.89-5.1.82-2.69,1.74-5.33,2.74-7.92,11.44,2.74,25.37,5.15,37.86,4.71,12.72-.44,26.54-3.67,37.65-7C220.35,292.29,221.44,294.86,222.43,297.49Z"/>
                  </g>
                </g>
                <path id="Path_578" data-name="Path 578" class="cls-8" d="M183.51,499.43a63.08,63.08,0,0,1-15.1-2.69s-30.89-124.47-31.52-170.4a86.4,86.4,0,0,1,4-26.37c.82-2.69,1.74-5.33,2.74-7.93.78-2,1.61-4,2.48-6,8.74-19.55,21.49-35.56,28.41-43.46a7,7,0,0,1,4.62-2.35C171.88,257.69,155.15,320.8,183.51,499.43Z"/>
              </g>
              <path id="Path_579" data-name="Path 579" class="cls-7" d="M216.48,284.35a128,128,0,0,1-17.73,4.09,148.58,148.58,0,0,1-17.62,1.68c-15.86.55-27.23-1.53-35-4,8.74-19.55,21.49-35.56,28.41-43.46a7,7,0,0,1,9.88-.64l.3.29a185.14,185.14,0,0,1,28.74,36.64h0C214.5,280.69,215.51,282.5,216.48,284.35Z"/>
              <g id="Group_149" data-name="Group 149">
                <path id="Path_580" data-name="Path 580" class="cls-7" d="M191.09,513.37a2.09,2.09,0,0,1-2.66,1.29,2.12,2.12,0,0,1-1.25-1.15c-14-32.73-7.45-87.56-3.94-109.82a2.09,2.09,0,0,1,4.1-.14C192.4,425.5,202.78,479.74,191.09,513.37Z"/>
                <path id="Path_581" data-name="Path 581" class="cls-8" d="M185.23,401.92l4,112.86a2.08,2.08,0,0,1-2-1.27c-14-32.73-7.45-87.56-3.94-109.82A2,2,0,0,1,185.23,401.92Z"/>
              </g>
              <g id="Group_150" data-name="Group 150">
                <circle id="Ellipse_160" data-name="Ellipse 160" class="cls-7" cx="183.56" cy="351.08" r="24.33"/>
                <path id="Path_582" data-name="Path 582" class="cls-10" d="M202.8,350.4v.26a19.26,19.26,0,0,1-18.31,19.64h-.25a19.25,19.25,0,1,1,18.56-19.92Z"/>
                <path id="Path_583" data-name="Path 583" class="cls-11" d="M197.1,337.41l-26.22,28.13a19.24,19.24,0,0,1-4.72-6.24l24.38-26.15A19.25,19.25,0,0,1,197.1,337.41Z"/>
                <path id="Path_584" data-name="Path 584" class="cls-11" d="M202.8,350.4v.26L184.49,370.3h-.25a19.73,19.73,0,0,1-5.25-.53l22.9-24.57A19.11,19.11,0,0,1,202.8,350.4Z"/>
                <path id="Path_585" data-name="Path 585" class="cls-12" d="M201.89,345.21a19.24,19.24,0,0,0-37.56,6.54c0,.53.06,1.06.12,1.57A19.25,19.25,0,0,1,202,348.37a18.69,18.69,0,0,1,.78,3.62c0-.44,0-.88,0-1.33v-.26A19.11,19.11,0,0,0,201.89,345.21Z"/>
              </g>
              <path id="Path_586" data-name="Path 586" class="cls-8" d="M216.48,284.35a128,128,0,0,1-17.73,4.09,148.58,148.58,0,0,1-17.62,1.68c-15.86.55-27.23-1.53-35-4,8.74-19.55,21.49-35.56,28.41-43.46a7,7,0,0,1,5.18-2.38c-.26.35-10.22,13.17-9.23,28.29,1,15.32,28,17.62,43,10.38h0C214.5,280.69,215.51,282.5,216.48,284.35Z"/>
              <path id="Path_587" data-name="Path 587" class="cls-5" d="M186.69,492.58h0Z"/>
            </g>
          </g>
        </g>
        <path class="cls-1" d="M328.41,692.16l-1.56,1.39c-.09-.17-.18-.34-.26-.52l0-.08c-.13-.26-.24-.52-.35-.79Z"/>
      </g>
    </g>
  </g>
</svg>
