<svg xmlns="http://www.w3.org/2000/svg" viewBox="0 0 229.05 447.59">
  <defs>
    <style>
      .cls-1 {
        fill: #e0333a;
      }

      .cls-2, .cls-6 {
        fill: #040506;
        isolation: isolate;
      }

      .cls-2 {
        opacity: 0.2;
      }

      .cls-3 {
        fill: #f5f9fa;
      }

      .cls-4 {
        fill: #3aaeb6;
      }

      .cls-5 {
        fill: #54b8c9;
      }

      .cls-6 {
        opacity: 0.1;
      }

      .cls-7 {
        fill: #ffb220;
      }
    </style>
  </defs>
  <g id="Layer_2" data-name="Layer 2">
    <g id="right_board" data-name="right board">
      <g id="rocket">
        <g id="Group_152" data-name="Group 152">
          <g id="Group_151" data-name="Group 151">
            <g id="Group_144" data-name="Group 144">
              <path id="Path_571" data-name="Path 571" class="cls-1" d="M69.08,337.51a39.47,39.47,0,0,0-18.59,4.59C39.82,348,30,361.33,37.6,391.67c5.85,23.24,7.06,39.54,6.71,50.29a5.83,5.83,0,0,1-11,2.52C20.31,420-3.28,369.87.38,334.92c2.43-23.23,18-46.22,33.43-63.72a263.3,263.3,0,0,1,31.86-30.52c-2.05,29.58-1.6,57.05,1.2,81.22v0l.21,1.77C67.65,328.42,68.32,333,69.08,337.51Z"/>
              <path id="Path_572" data-name="Path 572" class="cls-2" d="M69.08,337.51a39.47,39.47,0,0,0-18.59,4.59C39.82,348,30,361.33,37.6,391.67c5.85,23.24,7.06,39.54,6.71,50.29a5.68,5.68,0,0,1-4.24,5.4,21.18,21.18,0,0,1-1.19-9.6c2.09-21.18-18.44-59-17.35-84.48a44.86,44.86,0,0,1,6.31-21.14,70.31,70.31,0,0,0,8.1-51.88l-2.13-9.06a263.3,263.3,0,0,1,31.86-30.52c-2.05,29.58-1.6,57.05,1.2,81.22h0c.07.6.13,1.19.21,1.78,0,.22,0,.45.09.67.09.76.18,1.51.28,2.26q.18,1.44.39,2.88l.06.42c.13.94.27,1.87.41,2.8C68.55,334.33,68.81,335.93,69.08,337.51Z"/>
            </g>
            <g id="Group_145" data-name="Group 145">
              <path id="Path_573" data-name="Path 573" class="cls-1" d="M160,337.38a39.51,39.51,0,0,1,18.6,4.53c10.68,5.84,20.58,19.17,13,49.54-5.78,23.25-7,39.55-6.56,50.3a5.83,5.83,0,0,0,11,2.49c12.95-24.55,36.39-74.71,32.62-109.65C226.15,311.36,210.49,288.42,195,271a264,264,0,0,0-31.95-30.42c2.13,29.58,1.77,57-1,81.22v0c-.07.59-.13,1.18-.21,1.77C161.36,328.28,160.7,332.9,160,337.38Z"/>
              <path id="Path_574" data-name="Path 574" class="cls-2" d="M160,337.38a39.51,39.51,0,0,1,18.6,4.53c10.68,5.84,20.58,19.17,13,49.54-5.78,23.25-7,39.55-6.56,50.3a5.7,5.7,0,0,0,4.25,5.4,21.1,21.1,0,0,0,1.17-9.61c-2.15-21.17,18.27-59,17.1-84.53a45.11,45.11,0,0,0-6.37-21.13A70.22,70.22,0,0,1,192.93,280L195,271a263.25,263.25,0,0,0-31.95-30.42c2.13,29.58,1.77,57-1,81.22v0c-.07.59-.13,1.18-.21,1.77,0,.23,0,.45-.08.68-.09.75-.18,1.5-.28,2.25-.12,1-.24,1.93-.38,2.89l-.06.41c-.13.94-.26,1.88-.41,2.8C160.47,334.2,160.22,335.8,160,337.38Z"/>
            </g>
            <g id="Group_148" data-name="Group 148">
              <path id="Path_575" data-name="Path 575" class="cls-3" d="M151.15,399.68c-2,10.07-3.25,15.91-3.25,15.91a98.79,98.79,0,0,1-41,5.3,102.56,102.56,0,0,1-24.36-5.2s-1.33-6.26-3.53-17C68.69,348.23,39.42,198.91,40.64,137.4a140.38,140.38,0,0,1,8-42.59c1.47-4.32,3.11-8.55,4.87-12.71q2.07-4.83,4.36-9.52C73.1,41.32,94.67,16,106.34,3.58a11.38,11.38,0,0,1,16.08-.49l.47.47c11.84,12.57,33.88,38.27,49.23,70q2.13,4.39,4.07,8.93c1.77,4.16,3.41,8.4,4.87,12.72A139.25,139.25,0,0,1,189,137.18C190.37,199.14,161.1,350.28,151.15,399.68Z"/>
              <path id="Path_576" data-name="Path 576" class="cls-1" d="M151.15,399.68c-2,10.07-3.25,15.91-3.25,15.91a98.79,98.79,0,0,1-41,5.3,102.56,102.56,0,0,1-24.36-5.2s-1.33-6.26-3.53-17c3.84,2.1,16.51,8.08,36.2,8.05A94,94,0,0,0,151.15,399.68Z"/>
              <g id="Group_147" data-name="Group 147">
                <g id="Group_146" data-name="Group 146">
                  <path id="Path_577" data-name="Path 577" class="cls-1" d="M181.06,95.24c-19.23,5.12-43.59,10-66.34,10.07-22.35,0-46.61-5.07-66.09-10.51q2.2-6.47,4.88-12.7c18.41,5.07,40.9,9.75,61.19,9.72,20.67,0,43.27-4.51,61.49-9.3Q178.85,88.76,181.06,95.24Z"/>
                </g>
              </g>
              <path id="Path_578" data-name="Path 578" class="cls-2" d="M106.88,420.89a102.56,102.56,0,0,1-24.36-5.2S39.16,212,40.64,137.41a140.39,140.39,0,0,1,8-42.6c1.47-4.31,3.11-8.55,4.87-12.7q2.07-4.85,4.36-9.53C73.1,41.33,94.67,16,106.34,3.59A11.25,11.25,0,0,1,114,0C101.18,27.88,70.59,129.4,106.88,420.89Z"/>
            </g>
            <path id="Path_579" data-name="Path 579" class="cls-1" d="M172.12,73.59a208.7,208.7,0,0,1-29,5.67A235.19,235.19,0,0,1,114.43,81c-25.78,0-44.11-4-56.57-8.45C73.1,41.32,94.68,16,106.34,3.59a11.36,11.36,0,0,1,16.06-.5q.25.24.48.48C133.6,14.93,152.62,37,167.52,64.62h0Q169.9,69,172.12,73.59Z"/>
            <g id="Group_149" data-name="Group 149">
              <path id="Path_580" data-name="Path 580" class="cls-1" d="M118.42,443.92a3.4,3.4,0,0,1-6.35,0c-20.95-53.88-7.33-142.52-.42-178.45a3.4,3.4,0,0,1,6.67,0C125.33,301.38,139.22,390,118.42,443.92Z"/>
              <path id="Path_581" data-name="Path 581" class="cls-2" d="M115,262.71l.27,183.39a3.35,3.35,0,0,1-3.18-2.17c-20.95-53.88-7.33-142.52-.42-178.45A3.31,3.31,0,0,1,115,262.71Z"/>
            </g>
            <g id="Group_150" data-name="Group 150">
              <circle id="Ellipse_160" data-name="Ellipse 160" class="cls-1" cx="115.05" cy="180.1" r="39.52"/>
              <path id="Path_582" data-name="Path 582" class="cls-4" d="M146.3,180.06v.41a31.28,31.28,0,0,1-30.79,30.88h-.41A31.27,31.27,0,1,1,146.3,180v0Z"/>
              <path id="Path_583" data-name="Path 583" class="cls-5" d="M137.76,158.66,93.67,202.88a31.3,31.3,0,0,1-7.31-10.39l41-41.11A31,31,0,0,1,137.76,158.66Z"/>
              <path id="Path_584" data-name="Path 584" class="cls-5" d="M146.3,180.05v.42l-30.79,30.88h-.42a31.19,31.19,0,0,1-8.48-1.15l38.51-38.62A31.1,31.1,0,0,1,146.3,180.05Z"/>
              <path id="Path_585" data-name="Path 585" class="cls-6" d="M145.12,171.58a31.25,31.25,0,0,0-61.32,8.57c0,.86,0,1.71.11,2.55a31.26,31.26,0,0,1,61.22-6,30.42,30.42,0,0,1,1.07,5.91c.06-.71.09-1.44.1-2.16v-.42A31.1,31.1,0,0,0,145.12,171.58Z"/>
            </g>
            <path id="Path_586" data-name="Path 586" class="cls-2" d="M172.12,73.59a208.7,208.7,0,0,1-29,5.67A235.19,235.19,0,0,1,114.43,81c-25.78,0-44.11-4-56.57-8.45C73.1,41.32,94.68,16,106.34,3.59A11.29,11.29,0,0,1,114.88,0c-.45.55-17.31,20.81-16.54,45.41.79,24.92,44.47,30.13,69.18,19.19h0Q169.9,69,172.12,73.59Z"/>
            <path id="Path_587" data-name="Path 587" class="cls-7" d="M112.4,409.94h0Z"/>
          </g>
        </g>
      </g>
    </g>
  </g>
</svg>
