<svg xmlns="http://www.w3.org/2000/svg" viewBox="0 0 530.16 621.55">
  <defs>
    <style>
      .cls-1 {
        fill: #00385e;
      }

      .cls-2 {
        fill: #00233b;
      }

      .cls-3 {
        fill: #001626;
      }

      .cls-4 {
        fill: #dbdbdb;
      }

      .cls-5 {
        fill: #404040;
      }

      .cls-6 {
        fill: #202020;
      }

      .cls-7 {
        fill: #606060;
      }

      .cls-8 {
        fill: #a7a8a5;
      }

      .cls-9 {
        opacity: 0.71;
      }

      .cls-10 {
        fill: #3a3e5f;
      }

      .cls-11 {
        fill: #aeb0bd;
      }

      .cls-12 {
        fill: #2f3355;
      }

      .cls-13 {
        fill: #4b4e6c;
      }

      .cls-14 {
        fill: #bcbdc8;
      }

      .cls-14, .cls-26, .cls-28, .cls-29 {
        opacity: 0.4;
      }

      .cls-14, .cls-18, .cls-26, .cls-28, .cls-29, .cls-33 {
        isolation: isolate;
      }

      .cls-15 {
        fill: #181c42;
      }

      .cls-16 {
        fill: #65dfed;
      }

      .cls-17 {
        fill: #e7b3d8;
      }

      .cls-18 {
        fill: #afeef6;
        opacity: 0.5;
      }

      .cls-19 {
        fill: #a7a9b7;
      }

      .cls-20 {
        fill: #c5c6d0;
      }

      .cls-21 {
        fill: #ededf0;
      }

      .cls-22 {
        fill: #9799aa;
      }

      .cls-23 {
        fill: #d5d6dd;
      }

      .cls-24 {
        fill: #fff;
      }

      .cls-25 {
        fill: #00a7b5;
      }

      .cls-26, .cls-27 {
        fill: #5bb0ba;
      }

      .cls-28 {
        fill: #00b4c2;
      }

      .cls-29 {
        fill: #f3debe;
      }

      .cls-30 {
        fill: #363a5b;
      }

      .cls-31 {
        opacity: 0.7;
      }

      .cls-32 {
        fill: #eba947;
      }

      .cls-33 {
        fill: #f2c788;
        opacity: 0.6;
      }

      .cls-34 {
        fill: #f5c54a;
      }

      .cls-35 {
        opacity: 0.7;
      }
    </style>
  </defs>
  <g id="Layer_2" data-name="Layer 2">
    <g id="right_board" data-name="right board">
      <g id="header_illustrations" data-name="header illustrations">
        <path class="cls-1" d="M530.16,0V391.68c-39.84,35.95-76.65,60.95-90.38,61.57a1.63,1.63,0,0,1-.31,0,7.67,7.67,0,0,1-1.91-.15l-143.17,8.14-.48,0-.28-.15c-33.84-17.95-50.27-62.37-55.57-100.34s-6.11-78.62-26.35-111.3c-24-38.81-69.53-57.36-106.57-84C50.79,126.41,12.66,65.7,0,0Z"/>
        <path class="cls-2" d="M530.16,0V343.6c-23.47,29-53.42,60.66-92.69,97.26l-1.34,1.25-.52,0L300.47,438l-3.28-.1-1.77-.05c-21.84-14-24.12-44.17-28.13-69.8-8-50.89-30.67-111.93-66.47-149-30.44-31.5-80.34-72.59-115.56-96.45C44.92,96.55,10.34,35.23,7.72,0Z"/>
        <path class="cls-3" d="M51.57,0H530.16V288.48c-.34.64-.69,1.28-1,1.91-12.67,22.25-33.22,38.74-49.85,58.2a200.27,200.27,0,0,0-42.77,85.08l-3.31-.16-5.23-.26L316,427.74l-2.69-.13c.24-1.41.46-2.81.68-4.22a188.78,188.78,0,0,0-32.61-136.55c-20-28-48.47-52-55.8-85.53-10.3-47.13-75.74-91.24-95.4-117C98.85,47.54,63.68,12.4,51.57,0Z"/>
        <g id="backpack">
          <path id="Rectangle_8" data-name="Rectangle 8" class="cls-4" d="M265,601.9H470.74a9.82,9.82,0,0,1,9.82,9.82h0a9.83,9.83,0,0,1-9.82,9.83H265a9.83,9.83,0,0,1-9.82-9.83h0A9.82,9.82,0,0,1,265,601.9Z"/>
          <path id="Rectangle_9" data-name="Rectangle 9" class="cls-5" d="M293.48,462.27H439.79V576a38,38,0,0,1-38,37.95H331.43A38,38,0,0,1,293.48,576h0V462.27Z"/>
          <path id="Rectangle_10" data-name="Rectangle 10" class="cls-6" d="M324.65,426.53h84a31.18,31.18,0,0,1,31.18,31.17h0A40.31,40.31,0,0,1,399.48,498h-65.7a40.3,40.3,0,0,1-40.3-40.31h0a31.17,31.17,0,0,1,31.17-31.17Z"/>
          <path id="Rectangle_11" data-name="Rectangle 11" class="cls-7" d="M324.65,421.52h84a31.17,31.17,0,0,1,31.18,31.17h0A40.31,40.31,0,0,1,399.48,493h-65.7a40.3,40.3,0,0,1-40.3-40.31h0a31.16,31.16,0,0,1,31.17-31.17Z"/>
          <path id="Rectangle_12" data-name="Rectangle 12" class="cls-6" d="M308.84,518.39H421.75v36.46a47,47,0,0,1-47.05,47H355.89a47,47,0,0,1-47.05-47h0V518.39Z"/>
          <path id="Path_38" data-name="Path 38" class="cls-7" d="M308.84,518.39h112.9s1.34,70.15-56.45,70.15S308.84,518.39,308.84,518.39Z"/>
          <path id="Path_39" data-name="Path 39" class="cls-7" d="M293.48,590.14c-8.75,0-16,1.33-16-7.42v-48.5a15.84,15.84,0,0,1,15.84-15.83h.2Z"/>
          <path id="Path_40" data-name="Path 40" class="cls-7" d="M439.79,590.14c8.75,0,16,1.33,16-7.42v-48.5A15.83,15.83,0,0,0,440,518.39h-.2Z"/>
          <path id="Path_41" data-name="Path 41" class="cls-8" d="M384.42,482.29a17,17,0,1,1-34-.12,17.23,17.23,0,0,1,.78-5.05,17,17,0,0,0,32.47,0A17.1,17.1,0,0,1,384.42,482.29Z"/>
          <path id="Path_42" data-name="Path 42" class="cls-8" d="M377.15,582.88a10,10,0,1,1-19.9,0,9.57,9.57,0,0,1,.46-3,10,10,0,0,0,19,0A9.88,9.88,0,0,1,377.15,582.88Z"/>
          <path id="Path_43" data-name="Path 43" class="cls-5" d="M342.71,421.52s-1.48-41.15,24.7-40.83,22.74,40.83,22.74,40.83h-6.87s-1.33-32.87-16.65-33-16.24,33-16.24,33Z"/>
          <path id="Path_44" data-name="Path 44" class="cls-5" d="M277.44,541.23s13.2-2.7,16-8.86v-14S274.37,517.73,277.44,541.23Z"/>
          <path id="Path_45" data-name="Path 45" class="cls-5" d="M455.65,541.23s-13.2-2.7-16-8.86v-14S458.73,517.73,455.65,541.23Z"/>
        </g>
        <g id="phone" class="cls-9">
          <g id="Group_85" data-name="Group 85">
            <path id="Path_375" data-name="Path 375" class="cls-10" d="M292.23,222.89a5.63,5.63,0,0,0-1.68,5.1c.59,3.22,27.16,41.33,29.88,43s6.81,2.34,14.19-2.31,9.44-6.08,10.25-8.71a6,6,0,0,0-.56-4.72L313,222.75Z"/>
            <path id="Path_376" data-name="Path 376" class="cls-11" d="M291.84,223.29h0a2.13,2.13,0,0,0-.18.22l0,.05a2.15,2.15,0,0,0-.18.24l0,.06a7.07,7.07,0,0,0-.43.76c-.62,2.75,3.39,7.64,6,11.32,2.83,3.94,21.86,30.81,25.05,33.5s8.87-.33,13-2.82c3.65-2.22,9.25-5.26,9.93-8.34a7,7,0,0,0,.11-.78,6.23,6.23,0,0,0-.63-2L313,222.75l-20.73.14C292.14,223,292,223.16,291.84,223.29Z"/>
            <path id="Path_377" data-name="Path 377" class="cls-12" d="M291.59,223.68c-1.37,2.6,3,7.92,5.85,11.85s21.77,30.76,25,33.45,9.34-1,13.43-3.48,8.93-5.11,9.2-8.29-18.22-25.59-24.77-34.86c-1.82-2.58-5.88-8-9.4-7.57C306.11,215.37,293,221,291.59,223.68Z"/>
            <path id="Path_378" data-name="Path 378" class="cls-13" d="M319.67,264.73c-5.44-6.89-15.45-20.93-19.78-27L298,235.11l-1.1-1.51c-1.08-1.46-2.18-3-3.08-4.41,5.47-2.41,16.36-7.25,22.9-10.15a40.37,40.37,0,0,1,2.93,3.73c2.08,2.94,5.37,7.22,8.85,11.74,4.78,6.21,10.17,13.22,13.25,17.88Z"/>
            <path id="Path_379" data-name="Path 379" class="cls-14" d="M298,235.11l0,0c5.81.52,11.64.85,17.46,1.13,4.88.23,9.84.25,14.77.51l-1.75-2.27c-2.14-2.79-4.22-5.48-6-7.83-1.88-.31-3.75-.59-5.61-.79-4.49-.47-9-.69-13.52-1l-9.58,4.24c.9,1.45,2,2.95,3.08,4.41Z"/>
            <path id="Path_380" data-name="Path 380" class="cls-14" d="M336.63,245.18c-.91-1.22-1.85-2.48-2.82-3.75-4.88-.15-9.81-.61-14.66-.79-5.93-.22-11.86-.47-17.78-.84l2.55,3.56C314.8,244.57,325.74,244.24,336.63,245.18Z"/>
          </g>
          <path id="Path_381" data-name="Path 381" class="cls-15" d="M304.27,220.43a.78.78,0,0,1-.36,1h0a.8.8,0,0,1-1-.45.79.79,0,0,1,.37-1h0a.77.77,0,0,1,1,.44Z"/>
          <path id="Path_382" data-name="Path 382" class="cls-15" d="M305.86,219.58a.44.44,0,0,1-.21.57h0a.42.42,0,0,1-.54-.25h0a.4.4,0,1,1,.74-.32Z"/>
        </g>
        <g id="watch" class="cls-9">
          <path id="Path_383" data-name="Path 383" class="cls-16" d="M441.37,313.51s4.17,1.49,3.28,8.35S439.58,335,433.52,340s-10.24,5.47-13.42,5.47-7.45-2.29-7.45-2.29,3.58,5.87,6.26,7.55,5,3.09,9.24,2.69,12.92-2.69,19.88-13.22,5.26-15.9,4.17-18.28S446.14,313.81,441.37,313.51Z"/>
          <path id="Path_384" data-name="Path 384" class="cls-17" d="M441.37,313.51s4.17,1.49,3.28,8.35S439.58,335,433.52,340s-10.24,5.47-13.42,5.47-7.45-2.29-7.45-2.29,3.58,5.87,6.26,7.55,5,3.09,9.24,2.69,12.92-2.69,19.88-13.22,5.26-15.9,4.17-18.28S446.14,313.81,441.37,313.51Z"/>
          <g id="Group_87" data-name="Group 87">
            <path id="Path_385" data-name="Path 385" class="cls-18" d="M442.46,314.19a6.92,6.92,0,0,0-.6-.61,4.44,4.44,0,0,0-.49-.07A4.42,4.42,0,0,1,442.46,314.19Z"/>
            <path id="Path_386" data-name="Path 386" class="cls-18" d="M452.2,322a17.54,17.54,0,0,0-3.54-4.54,16.25,16.25,0,0,1,2.84,3.85c1.1,2.38,2.79,7.75-4.17,18.28s-15.6,12.82-19.87,13.22-6.56-1-9.24-2.69a7.19,7.19,0,0,1-1.15-.91,10.42,10.42,0,0,0,1.84,1.61c2.68,1.69,5,3.08,9.24,2.68s12.92-2.68,19.88-13.21S453.29,324.34,452.2,322Z"/>
          </g>
          <path id="Path_387" data-name="Path 387" class="cls-16" d="M436.4,320.07s6.06-4.87,11.92-1.59S452.79,329,452.79,329s2.29-7.75-4.77-14.3-12-6.46-16.59-4.77-4.87,3.87-4.87,3.87Z"/>
          <path id="Path_388" data-name="Path 388" class="cls-16" d="M421,336.07s-5,4.17-4.77,8.94,7.15,8.05,7.15,8.05-9.54-1.89-13.51-11.23a12.54,12.54,0,0,1,3.18-14.9Z"/>
          <g id="Group_88" data-name="Group 88">
            <path id="Path_389" data-name="Path 389" class="cls-12" d="M409.07,323.05s-2.88,2.78-.2,7,6.17,8.54,11.63,8.64,17-14,18.18-16.69-.4-6.16-4-9.94-7.15-5.36-11.33-3.08S410.47,320.37,409.07,323.05Z"/>
            <path id="Path_390" data-name="Path 390" class="cls-13" d="M427.26,307.89a7.89,7.89,0,0,0-3.88,1.05c-4.17,2.29-12.91,11.43-14.3,14.11a4.61,4.61,0,0,0-.67.92,6.35,6.35,0,0,0,1.43,3.45c2.58,3.18,5.8,7.26,9.47,6.86s15.4-13.51,16.1-15.1.4-2.58-1.19-4.67A40,40,0,0,0,427.26,307.89Z"/>
            <path id="Path_391" data-name="Path 391" class="cls-14" d="M434.17,320.89a11.65,11.65,0,0,0,1.24-1.71c.7-1.59.4-2.59-1.2-4.67-.14-.2-.33-.42-.53-.66-1.83.09-3.65.17-5.43.33-4.44.4-8.85,1.09-13.24,1.85a52.11,52.11,0,0,0-5.6,6.45C417.68,322.17,425.91,321.32,434.17,320.89Z"/>
            <path id="Path_392" data-name="Path 392" class="cls-14" d="M431.52,324c-3.08.37-6.18.57-9.14.76-4.54.29-9,.75-13.56,1a6.57,6.57,0,0,0,1,1.73l1.16,1.42c5.77-.52,11.56-1.08,17.34-1.54C429.46,326.18,430.55,325,431.52,324Z"/>
          </g>
        </g>
        <g id="laptop" class="cls-9">
          <g id="Group_103" data-name="Group 103">
            <g id="Group_102" data-name="Group 102">
              <path id="Path_393" data-name="Path 393" class="cls-19" d="M355,114.12l.44,2.83,75.9,82.86.21-2.4-74.09-81.69Z"/>
              <path id="Path_394" data-name="Path 394" class="cls-20" d="M431.4,197.71l0,2.1,40.07-5.65.89-1.66-31.69,2.07-8.85,1.59Z"/>
              <path id="Path_395" data-name="Path 395" class="cls-21" d="M397.88,116.14l-42.87-2,76.39,83.59,40.91-5.21Z"/>
              <path id="Path_396" data-name="Path 396" class="cls-12" d="M397,116l49.57-48.78s2.28-3.06,6.55,0,47.39,42.91,47.39,42.91,17.34,16.22,23,21.71c2.12,2,3.74,3.32,2.22,6.63s-10.09,11.06-10.09,11.06l-43.34,43Z"/>
              <path id="Path_397" data-name="Path 397" class="cls-13" d="M403.63,115.34l44.49-45,73.34,67.09-48,48.12Z"/>
              <path id="Path_398" data-name="Path 398" class="cls-14" d="M481.12,138c11.44-2.11,22.89-3.88,34.29-6.06l-20-18.26c-10.33,1.77-20.7,3.31-31,4.91-16.71,2.59-33.63,6-50.56,7.11l21.47,21.59C450.7,144.64,465.81,140.78,481.12,138Z"/>
              <path id="Path_399" data-name="Path 399" class="cls-14" d="M489.44,151.36c7.87-1.55,15.64-3.36,23.39-5.3l7.18-7.2c-10.3,2.27-20.75,4-31,5.9-15.82,2.87-31.63,5.73-47.41,8.78l5.35,5.37C461.15,156.52,475.33,154.15,489.44,151.36Z"/>
              <path id="Path_400" data-name="Path 400" class="cls-11" d="M378.2,118.88l18.31.43,67.5,68-18.87,2.12Z"/>
              <g id="Group_90" data-name="Group 90">
                <path id="Path_401" data-name="Path 401" class="cls-22" d="M458,185.32a.37.37,0,0,1-.16-.09l-25.91-26.37a.34.34,0,0,1,0-.48h0a.34.34,0,0,1,.48,0h0l25.92,26.37a.34.34,0,0,1,0,.48.36.36,0,0,1-.32.09Z"/>
              </g>
              <g id="Group_91" data-name="Group 91">
                <path id="Path_402" data-name="Path 402" class="cls-22" d="M425.16,151.89a.26.26,0,0,1-.16-.09l-11.7-11.9a.34.34,0,0,1,0-.48.34.34,0,0,1,.48,0l0,0,11.69,11.9a.34.34,0,0,1,0,.48.32.32,0,0,1-.32.09Z"/>
              </g>
              <g id="Group_92" data-name="Group 92">
                <path id="Path_403" data-name="Path 403" class="cls-22" d="M411.2,137.69a.51.51,0,0,1-.16-.09L394.8,121.06a.34.34,0,0,1,.46-.5l0,0,16.25,16.54a.34.34,0,0,1-.33.57Z"/>
              </g>
              <g id="Group_93" data-name="Group 93">
                <path id="Path_404" data-name="Path 404" class="cls-22" d="M453,185.57a.32.32,0,0,1-.16-.09l-14.73-15a.34.34,0,1,1,.48-.47l14.73,15a.34.34,0,0,1,0,.48.33.33,0,0,1-.32.09Z"/>
              </g>
              <g id="Group_94" data-name="Group 94">
                <path id="Path_405" data-name="Path 405" class="cls-22" d="M434.33,166.52a.32.32,0,0,1-.16-.09l-16-16.36a.34.34,0,1,1,.49-.47l16,16.35a.34.34,0,0,1,0,.48A.34.34,0,0,1,434.33,166.52Z"/>
              </g>
              <g id="Group_95" data-name="Group 95">
                <path id="Path_406" data-name="Path 406" class="cls-22" d="M414.15,145.91a.32.32,0,0,1-.16-.09l-9.28-9.47a.34.34,0,0,1,0-.48.34.34,0,0,1,.48,0l9.27,9.47a.34.34,0,0,1,0,.48A.32.32,0,0,1,414.15,145.91Z"/>
              </g>
              <g id="Group_96" data-name="Group 96">
                <path id="Path_407" data-name="Path 407" class="cls-22" d="M402.56,134.08a.37.37,0,0,1-.17-.1L390,121.36a.34.34,0,0,1,0-.48.34.34,0,0,1,.48,0l12.37,12.63a.34.34,0,0,1,0,.48A.38.38,0,0,1,402.56,134.08Z"/>
              </g>
              <g id="Group_97" data-name="Group 97">
                <path id="Path_408" data-name="Path 408" class="cls-22" d="M448.7,186.84a.29.29,0,0,1-.16-.09l-7.91-8.1a.34.34,0,0,1,.49-.47l7.91,8.09a.35.35,0,0,1,0,.49.32.32,0,0,1-.31.08Z"/>
              </g>
              <g id="Group_98" data-name="Group 98">
                <path id="Path_409" data-name="Path 409" class="cls-22" d="M439.1,177a.39.39,0,0,1-.16-.1L424.85,162.5a.34.34,0,0,1,0-.48.36.36,0,0,1,.49,0l14.09,14.43a.34.34,0,0,1,0,.48.36.36,0,0,1-.32.09Z"/>
              </g>
              <g id="Group_99" data-name="Group 99">
                <path id="Path_410" data-name="Path 410" class="cls-22" d="M421.76,159.26a.24.24,0,0,1-.16-.09l-15.32-15.68a.34.34,0,1,1,.48-.47l15.32,15.68a.33.33,0,0,1-.32.56Z"/>
              </g>
              <g id="Group_100" data-name="Group 100">
                <path id="Path_411" data-name="Path 411" class="cls-22" d="M403.62,140.71a.34.34,0,0,1-.16-.1l-17.7-18.11a.34.34,0,0,1,0-.48.34.34,0,0,1,.48,0L404,140.14a.34.34,0,0,1,0,.48A.36.36,0,0,1,403.62,140.71Z"/>
              </g>
              <g id="Group_101" data-name="Group 101">
                <path id="Path_412" data-name="Path 412" class="cls-22" d="M385.92,122.59a.26.26,0,0,1-.16-.09l-.79-.81a.34.34,0,0,1,0-.48.36.36,0,0,1,.46,0l.79.81a.36.36,0,0,1,0,.49A.35.35,0,0,1,385.92,122.59Z"/>
              </g>
              <path id="Path_413" data-name="Path 413" class="cls-23" d="M395.61,140l24.14,25.43-9,1.72-24.52-26.4Z"/>
            </g>
            <path id="Path_414" data-name="Path 414" class="cls-24" d="M455.72,193.43s-17.59,1.58-23.13-.56c-5.93-2.3-18.12-15.84-18.12-15.84l-57.89-62.84-1.57-.07,76.39,83.59,40.91-5.21-.83-.85Z"/>
          </g>
        </g>
        <g id="headphones">
          <g id="Group_108" data-name="Group 108">
            <path id="Path_415" data-name="Path 415" class="cls-25" d="M225.34,68.51s-12.29-4.65-23.39,1S190.62,84,190.5,87.75a37.81,37.81,0,0,0,.89,9.06l-3.13.5a27.74,27.74,0,0,1,4.06-23.55c8.17-11.54,23-10.46,27.23-9.78a27.84,27.84,0,0,1,7.51,2.37Z"/>
            <path id="Path_416" data-name="Path 416" class="cls-26" d="M193.65,74.82C198.6,68,206.72,65,214.79,63.6c-6.34-.07-16.3,1.44-22.47,10.16a27.74,27.74,0,0,0-4.06,23.55l1.28-.2C187.33,89.83,189.07,81.15,193.65,74.82Z"/>
            <path id="Path_417" data-name="Path 417" class="cls-27" d="M192.62,74.28c8.17-11.53,23-10.46,27.24-9.77a28.49,28.49,0,0,1,7,2.11l.21-.27a27.77,27.77,0,0,0-7.5-2.37c-4.26-.68-19.07-1.76-27.24,9.78a27.74,27.74,0,0,0-4.06,23.55l.44-.07A27.37,27.37,0,0,1,192.62,74.28Z"/>
            <g id="Group_106" data-name="Group 106">
              <path id="Path_421" data-name="Path 421" class="cls-25" d="M234.27,78.42s3.26-1.88,5.63-1,8.28,7,10.11,9.66,2.7,4.31,1.46,6.84a10.42,10.42,0,0,1-2.18,3.3S238.63,86.44,236.43,83.5,234.27,78.42,234.27,78.42Z"/>
              <path id="Path_422" data-name="Path 422" class="cls-25" d="M234.27,78.42s3.26-1.88,5.63-1,8.28,7,10.11,9.66,2.7,4.31,1.46,6.84a10.42,10.42,0,0,1-2.18,3.3S238.63,86.44,236.43,83.5,234.27,78.42,234.27,78.42Z"/>
              <path id="Path_423" data-name="Path 423" class="cls-28" d="M241.16,78.18a6.53,6.53,0,0,0-1.26-.72c-2.38-.92-5.63,1-5.63,1a7.45,7.45,0,0,0,.94,3.11A10.18,10.18,0,0,1,241.16,78.18Z"/>
              <path id="Path_424" data-name="Path 424" class="cls-12" d="M230.2,79.61s-3.86.67-5.61,2.88-2,3.87,5.29,11.88,8.68,11.52,13.31,11.53,5.19-7,5.19-7-5.77-10.85-9.57-14.23A29,29,0,0,0,230.2,79.61Z"/>
              <path id="Path_425" data-name="Path 425" class="cls-29" d="M235,96.15a55.67,55.67,0,0,1,6.83,9.64,7.6,7.6,0,0,0,1.06.1c-3.1-7-8.07-14.42-14.5-18.65-1.18-.78-2.41-1.15-1.75-2.72.83-2,3.52-3.16,5.81-4-1.35-.63-2.26-1-2.26-1s-3.86.67-5.61,2.88a4.28,4.28,0,0,0-1,3,16.71,16.71,0,0,1,3.83,2.55C230.46,90.27,232.75,93.39,235,96.15Z"/>
              <path id="Path_426" data-name="Path 426" class="cls-25" d="M234.13,77.79a68.06,68.06,0,0,1,10.36,9.93c5,6.14,6,8.67,6,8.67a9,9,0,0,1-.92,2.38,15.63,15.63,0,0,1-1.48,2q-5.31-7.44-11.34-14.31a45.77,45.77,0,0,0-7.24-6.6,6.67,6.67,0,0,1,2.46-1.48A9.2,9.2,0,0,1,234.13,77.79Z"/>
              <path id="Path_427" data-name="Path 427" class="cls-27" d="M243.11,86.66A50.75,50.75,0,0,1,250.3,97c.1-.34.15-.57.15-.57s-1-2.53-6-8.67a68,68,0,0,0-10.36-9.93s-.31,0-.74.12C237,80,240.38,83.65,243.11,86.66Z"/>
              <path id="Path_428" data-name="Path 428" class="cls-12" d="M223.56,85.08c.12,1.73,1.72,4.26,6.32,9.29,7,7.62,8.53,11.15,12.64,11.5C237.5,97.8,231.84,90,223.56,85.08Z"/>
              <path id="Path_429" data-name="Path 429" class="cls-12" d="M231.39,70.94A9.3,9.3,0,0,1,236,74.67c1.75,2.84,2.63,6.91,3.83,10.36s1.55,5.87,2.49,6c1.49.15,1.19-1.23.06-4.52s-3.51-10.9-4-11.92A9.11,9.11,0,0,0,235,70.76a17.9,17.9,0,0,0-3.33-1.53Z"/>
              <path id="Path_430" data-name="Path 430" class="cls-10" d="M225,64.29l-1.86,4.58s6.51,3.14,8.77,2.78,2.31-2.93-.48-4.3C229.87,66.59,225,64.29,225,64.29Z"/>
            </g>
            <g id="Group_107" data-name="Group 107">
              <path id="Path_431" data-name="Path 431" class="cls-25" d="M198.61,106.24s-2.52,2.79-2.12,5.31,5.16,9.56,7.34,11.9,3.65,3.53,6.38,2.86a10.36,10.36,0,0,0,3.68-1.44s-8.35-12.69-10.77-15.45S198.61,106.24,198.61,106.24Z"/>
              <path id="Path_432" data-name="Path 432" class="cls-25" d="M198.61,106.24s-2.52,2.79-2.12,5.31,5.16,9.56,7.34,11.9,3.65,3.53,6.38,2.86a10.36,10.36,0,0,0,3.68-1.44s-8.35-12.69-10.77-15.45S198.61,106.24,198.61,106.24Z"/>
              <path id="Path_433" data-name="Path 433" class="cls-28" d="M201.69,118.59c-2.56-3.89-3.84-7.46-.29-10.83a7.46,7.46,0,0,0-2.79-1.52s-2.52,2.79-2.12,5.31,5.16,9.56,7.34,11.9c1.66,1.78,2.9,2.89,4.6,3A32.65,32.65,0,0,1,201.69,118.59Z"/>
              <path id="Path_434" data-name="Path 434" class="cls-12" d="M200.62,102.51s1.47-3.64,4-4.88,4.21-1.18,10.52,7.65,9.45,10.89,8.5,15.42-7.93,3.62-7.93,3.62-9.41-7.91-11.92-12.33A29.21,29.21,0,0,1,200.62,102.51Z"/>
              <path id="Path_435" data-name="Path 435" class="cls-29" d="M206.28,101.53l.37-.35a7.06,7.06,0,0,1,.95-.67,10.35,10.35,0,0,1-1.2-3.45,4.75,4.75,0,0,0-1.79.57c-2.52,1.24-4,4.88-4,4.88a30.91,30.91,0,0,0,1.44,5.68c.08-.27.17-.53.27-.8A9,9,0,0,1,206.28,101.53Z"/>
              <path id="Path_436" data-name="Path 436" class="cls-25" d="M198,106a67.58,67.58,0,0,0,7.54,12.21c5,6.15,7.24,7.64,7.24,7.64a9.4,9.4,0,0,0,2.52-.4,15.51,15.51,0,0,0,2.22-1,178,178,0,0,1-11.63-14.08,45.35,45.35,0,0,1-4.95-8.46,6.81,6.81,0,0,0-2,2.11A8.45,8.45,0,0,0,198,106Z"/>
              <path id="Path_437" data-name="Path 437" class="cls-28" d="M202.22,104.38a23.16,23.16,0,0,1-1.25-2.55,6.81,6.81,0,0,0-2,2.11,8.45,8.45,0,0,0-1,2s.83,1.8,2.26,4.31A7.72,7.72,0,0,1,202.22,104.38Z"/>
              <path id="Path_438" data-name="Path 438" class="cls-27" d="M204.82,116.6a50.07,50.07,0,0,0,8.57,9.18c-.35,0-.59,0-.59,0s-2.26-1.48-7.23-7.64A67.5,67.5,0,0,1,198,106s.09-.3.26-.7C199.58,109.23,202.45,113.31,204.82,116.6Z"/>
              <path id="Path_439" data-name="Path 439" class="cls-30" d="M207.36,97.16c1.67.48,3.81,2.57,7.77,8.12,6,8.4,9.12,10.67,8.6,14.77C216.89,113.44,210.43,106.28,207.36,97.16Z"/>
              <path id="Path_440" data-name="Path 440" class="cls-12" d="M191.9,101.86a9.25,9.25,0,0,0,2.68,5.31c2.4,2.31,6.2,4,9.33,5.91s5.42,2.75,5.31,3.68c-.17,1.49-1.45.9-4.44-.88s-9.92-5.72-10.82-6.37a9,9,0,0,1-3-4.17,17.8,17.8,0,0,1-.8-3.58Z"/>
              <path id="Path_441" data-name="Path 441" class="cls-10" d="M186.73,94.24l4.86-.87s1.71,7,.89,9.17-3.35,1.64-4.1-1.38C188,99.47,186.73,94.24,186.73,94.24Z"/>
            </g>
          </g>
          <path id="Path_442" data-name="Path 442" class="cls-26" d="M233.43,80.91a3.54,3.54,0,0,1,2.39-1.77c-1-.85-1.69-1.34-1.69-1.34a8.83,8.83,0,0,0-2.2.53,6.67,6.67,0,0,0-2.46,1.48,35.58,35.58,0,0,1,4.68,4A3.17,3.17,0,0,1,233.43,80.91Z"/>
          <path id="Path_443" data-name="Path 443" class="cls-29" d="M231.92,71.65a2.15,2.15,0,0,0,1.15-.51,11.35,11.35,0,0,1-5.42-2.29c-1.64-1.31-2-2.36-1.58-4L225,64.29l-1.86,4.58S229.66,72,231.92,71.65Z"/>
          <path id="Path_444" data-name="Path 444" class="cls-29" d="M189,93.83l-2.31.41s1.22,5.23,1.65,6.92c.49,2,1.73,2.86,2.77,2.65C189.34,101.22,189.05,96.61,189,93.83Z"/>
        </g>
        <g id="wifi" class="cls-31">
          <path id="Path_445" data-name="Path 445" class="cls-32" d="M323.52,179.27l6.76,1.55s2.42-8.19,10.67-10.52c9.34-2.65,14,1.47,14,1.47l2.63-5.47a21.3,21.3,0,0,0-20.73-1.48C325,170.32,323.52,179.27,323.52,179.27Z"/>
          <path id="Path_446" data-name="Path 446" class="cls-32" d="M333.35,181.8l4.94,1.16a7.12,7.12,0,0,1,5.45-6.36c5.59-1.51,7.89,1,7.89,1l1.95-3.66a13.12,13.12,0,0,0-11.5-1.44C334.18,175,333.35,181.8,333.35,181.8Z"/>
          <path id="Path_447" data-name="Path 447" class="cls-32" d="M348.9,181.86a3.07,3.07,0,1,1-3.51-2.56A3.06,3.06,0,0,1,348.9,181.86Z"/>
          <path id="Path_448" data-name="Path 448" class="cls-33" d="M348.43,180.65a4.33,4.33,0,0,1-1.06,2.88,3.22,3.22,0,0,1-3.9.69,3.06,3.06,0,0,0,5-3.57Z"/>
          <path id="Path_449" data-name="Path 449" class="cls-33" d="M351.93,176a7.7,7.7,0,0,0-1.24-.56,8.79,8.79,0,0,0-2.67-.66,11,11,0,0,0-7.58,2.43,11.89,11.89,0,0,0-2.75,3.08c-.92,1.44-2.61.79-4.05.32a7.12,7.12,0,0,0-.29,1.19l4.94,1.17a7.12,7.12,0,0,1,5.46-6.36c5.58-1.51,7.88,1,7.88,1l.73-1.37C352.21,176.18,352.06,176.06,351.93,176Z"/>
          <path id="Path_450" data-name="Path 450" class="cls-33" d="M356.36,167.71a5.15,5.15,0,0,1-2.31,1.44,8.47,8.47,0,0,1-2.82-.51,20.46,20.46,0,0,0-15,2.41,26.15,26.15,0,0,0-5.57,4.76c-.68.75-1.23,1.71-2.31,1.83a8.27,8.27,0,0,1-4-.76,11.9,11.9,0,0,0-.77,2.39l6.76,1.55s2.42-8.19,10.67-10.53c9.34-2.64,14,1.47,14,1.47l2.48-5.16A8.87,8.87,0,0,1,356.36,167.71Z"/>
        </g>
        <g id="music" class="cls-9">
          <path id="Path_451" data-name="Path 451" class="cls-32" d="M317.43,81.21a10.87,10.87,0,0,0,1.07-1.71c1.08-2.07,2.33-4,3.52-6l1-1.62,1.71-2.9-8.23-6.35-5.24,9.47a2.87,2.87,0,0,0-2.53-2.56,3.14,3.14,0,0,0-.43,6.22c2.06.15,2.94-2.09,3.82-3.54L313.38,70l2.13-3.53.19-.3L322,70.68l-3.93,8.49a2.92,2.92,0,0,0-2.56-3,3.14,3.14,0,0,0-.44,6.22A2.74,2.74,0,0,0,317.43,81.21Z"/>
          <path id="Path_452" data-name="Path 452" class="cls-34" d="M313.38,70l2.13-3.53a3.49,3.49,0,0,0,.18-.31L322,70.68l-1.83,3.95c.23-.4.45-.79.66-1.19a21.07,21.07,0,0,1,1.79-3,13.3,13.3,0,0,1-1.49-.93c-.83-.57-1.63-1.16-2.47-1.7-.67-.43-1.26-1-2-1.4a4.09,4.09,0,0,0-1-.49c-.3-.06-.27,0-.43.32-.33.59-.71,1.17-1.08,1.73s-.69,1.2-1.06,1.76a27.56,27.56,0,0,1-2.53,3.55,4.07,4.07,0,0,1-1.63,1,2.65,2.65,0,0,1-1.55.19,2.57,2.57,0,0,1-1.61-.9,2.79,2.79,0,0,0,2.42,2c2.06.15,2.94-2.09,3.82-3.54Z"/>
          <path id="Path_453" data-name="Path 453" class="cls-34" d="M319.18,78.25a6,6,0,0,1-1.68,1.81c-1.36.89-4.15,1-4.8-.85a2.36,2.36,0,0,1-.11-.44,2.91,2.91,0,0,0,0,.31,3,3,0,0,0,2.55,3.3,2.72,2.72,0,0,0,2.33-1.17,10.43,10.43,0,0,0,1.07-1.71C318.72,79.08,319,78.67,319.18,78.25Z"/>
        </g>
        <g id="location" class="cls-35">
          <path id="Path_454" data-name="Path 454" class="cls-32" d="M354.18,302.8a7.31,7.31,0,0,0-7.92,6.66h0a4.2,4.2,0,0,0,0,.86s0,0,0,0v0a6.15,6.15,0,0,0,.11.69c0,.19.09.38.14.59a.74.74,0,0,0,0,.14c.07.26.15.52.24.79a33.57,33.57,0,0,0,1.92,4.34l.51,1c.37.68.74,1.33,1.1,1.94l.26.44c.25.42.49.82.71,1.17l.41.65.29.46.14.22.13.19.11.18,0,0,.44-.48.3-.32c.62-.67,1.56-1.73,2.56-3l.58-.71c.32-.4.64-.81,1-1.24l.38-.51c.59-.8,1.15-1.62,1.64-2.43.19-.31.36-.61.53-.91a1.34,1.34,0,0,1,.12-.24c.08-.16.16-.32.23-.48s.18-.4.26-.59.08-.22.11-.32h0l0-.08a5.12,5.12,0,0,0,.26-1.16A7.32,7.32,0,0,0,354.18,302.8Zm-.32,3.72a3.59,3.59,0,0,1-.61,7.15h0a3.59,3.59,0,1,1,.62-7.15Z"/>
          <path id="Path_455" data-name="Path 455" class="cls-34" d="M352.43,323.17s6.7-7,8.15-11.28l0,.09a22.44,22.44,0,0,1-1.94,2.89c-1.13,1.45-3.73,5.29-6,4a8.42,8.42,0,0,1-2.57-2.29,22.6,22.6,0,0,1-3.76-6.29C346.74,314.72,352.43,323.17,352.43,323.17Z"/>
        </g>
      </g>
    </g>
  </g>
</svg>
